<?xml version="1.0" encoding="UTF-8"?><svg id="Layer_2" xmlns="http://www.w3.org/2000/svg" xmlns:xlink="http://www.w3.org/1999/xlink" viewBox="0 0 1010.88 673.92"><defs><style>.cls-1{fill:url(#linear-gradient-2);}.cls-2{fill:#b24040;}.cls-3{fill:url(#linear-gradient-6);}.cls-4{fill:url(#linear-gradient-11);}.cls-5{fill:url(#linear-gradient-10);}.cls-6{fill:url(#linear-gradient-5);}.cls-7{fill:#f7dab0;}.cls-8{fill:url(#linear-gradient-7);}.cls-9{fill:url(#linear-gradient-9);}.cls-10{fill:url(#linear-gradient-3);}.cls-11{fill:url(#linear-gradient);}.cls-12{fill:url(#linear-gradient-4);}.cls-13{fill:url(#linear-gradient-8);}.cls-14{fill:url(#linear-gradient-12);}.cls-15{fill:url(#linear-gradient-13);}</style><linearGradient id="linear-gradient" x1="973.44" y1="83.87" x2="873.69" y2="83.87" gradientUnits="userSpaceOnUse"><stop offset="0" stop-color="#fff" stop-opacity="0"/><stop offset=".03" stop-color="#fefbf8" stop-opacity=".09"/><stop offset=".15" stop-color="#fcf1e2" stop-opacity=".36"/><stop offset=".26" stop-color="#fae9d0" stop-opacity=".59"/><stop offset=".36" stop-color="#f8e2c2" stop-opacity=".77"/><stop offset=".45" stop-color="#f7ddb8" stop-opacity=".89"/><stop offset=".53" stop-color="#f7dbb2" stop-opacity=".97"/><stop offset=".58" stop-color="#f7dab0"/><stop offset=".94" stop-color="#f0d5ab"/><stop offset=".99" stop-color="#efd5ab"/></linearGradient><linearGradient id="linear-gradient-2" x1="970.97" y1="529.73" x2="889.9" y2="529.73" gradientUnits="userSpaceOnUse"><stop offset="0" stop-color="#fff" stop-opacity="0"/><stop offset=".02" stop-color="#fefcfa" stop-opacity=".06"/><stop offset=".14" stop-color="#f9f0e2" stop-opacity=".34"/><stop offset=".25" stop-color="#f5e6ce" stop-opacity=".57"/><stop offset=".36" stop-color="#f2dfbf" stop-opacity=".76"/><stop offset=".45" stop-color="#f0d9b4" stop-opacity=".89"/><stop offset=".53" stop-color="#efd6ad" stop-opacity=".97"/><stop offset=".58" stop-color="#efd5ab"/><stop offset=".99" stop-color="#efd5ab"/></linearGradient><linearGradient id="linear-gradient-3" x1="968.65" y1="380.24" x2="892.22" y2="380.24" xlink:href="#linear-gradient-2"/><linearGradient id="linear-gradient-4" x1="973.44" y1="280.74" x2="873.69" y2="280.74" xlink:href="#linear-gradient-2"/><linearGradient id="linear-gradient-5" x1="964.02" y1="179.99" x2="887.58" y2="179.99" xlink:href="#linear-gradient-2"/><linearGradient id="linear-gradient-6" x1="56.16" y1="83.87" x2="239.31" y2="83.87" gradientUnits="userSpaceOnUse"><stop offset="0" stop-color="#fff" stop-opacity="0"/><stop offset=".01" stop-color="#fefcfa" stop-opacity=".06"/><stop offset=".07" stop-color="#f9f0e2" stop-opacity=".34"/><stop offset=".13" stop-color="#f5e6ce" stop-opacity=".57"/><stop offset=".18" stop-color="#f2dfbf" stop-opacity=".76"/><stop offset=".22" stop-color="#f0d9b4" stop-opacity=".89"/><stop offset=".26" stop-color="#efd6ad" stop-opacity=".97"/><stop offset=".29" stop-color="#efd5ab"/><stop offset=".99" stop-color="#efd5ab"/></linearGradient><linearGradient id="linear-gradient-7" x1="58.65" y1="529.73" x2="139.71" y2="529.73" xlink:href="#linear-gradient-2"/><linearGradient id="linear-gradient-8" x1="161.72" y1="592.37" x2="238.15" y2="592.37" gradientUnits="userSpaceOnUse"><stop offset=".58" stop-color="#efd5ab"/><stop offset=".99" stop-color="#efd5ab"/></linearGradient><linearGradient id="linear-gradient-9" x1="159.4" y1="437.09" x2="240.47" y2="437.09" xlink:href="#linear-gradient-8"/><linearGradient id="linear-gradient-10" x1="60.96" y1="380.24" x2="137.4" y2="380.24" xlink:href="#linear-gradient-2"/><linearGradient id="linear-gradient-11" y1="280.74" y2="280.74" xlink:href="#linear-gradient-6"/><linearGradient id="linear-gradient-12" x1="56.33" y1="179.99" x2="132.77" y2="179.99" xlink:href="#linear-gradient-2"/><linearGradient id="linear-gradient-13" x1="148.98" y1="179.99" x2="225.41" y2="179.99" xlink:href="#linear-gradient-8"/></defs><g id="Layer_1-2"><rect class="cls-2" width="1010.88" height="673.92"/><g><rect class="cls-7" x="458.06" y="43.33" width="196.88" height="81.07"/><rect class="cls-7" x="357.89" y="43.33" width="81.07" height="196.88"/><circle class="cls-7" cx="302.75" cy="84.93" r="38.22"/><rect class="cls-7" x="262.22" y="130.19" width="81.07" height="196.88"/><circle class="cls-7" cx="398.42" cy="291.27" r="38.22"/><rect class="cls-7" x="261.19" y="350.23" width="196.88" height="81.07"/><rect class="cls-7" x="261.19" y="547.1" width="196.88" height="81.07"/><rect class="cls-7" x="474.27" y="431.29" width="81.07" height="196.88"/><circle class="cls-7" cx="615.56" cy="592.37" r="38.22"/><rect class="cls-7" x="575.03" y="338.65" width="81.07" height="196.88"/><circle class="cls-7" cx="514.81" cy="380.24" r="38.22"/><rect class="cls-7" x="458.06" y="240.21" width="196.88" height="81.07"/><circle class="cls-7" cx="510.18" cy="179.99" r="38.22"/><circle class="cls-7" cx="602.82" cy="179.99" r="38.22"/><circle class="cls-7" cx="316.2" cy="489.78" r="38.22"/><circle class="cls-7" cx="408.84" cy="489.78" r="38.22"/><g><rect class="cls-11" x="873.69" y="43.33" width="99.75" height="81.07"/><rect class="cls-7" x="773.51" y="43.33" width="81.07" height="196.88"/><circle class="cls-7" cx="718.37" cy="84.93" r="38.22"/><rect class="cls-7" x="677.84" y="130.19" width="81.07" height="196.88"/><circle class="cls-7" cx="814.05" cy="291.27" r="38.22"/><rect class="cls-7" x="676.81" y="350.23" width="196.88" height="81.07"/><rect class="cls-7" x="676.81" y="547.1" width="196.88" height="81.07"/><rect class="cls-1" x="889.9" y="431.29" width="81.07" height="196.88"/><circle class="cls-10" cx="930.43" cy="380.24" r="38.22"/><rect class="cls-12" x="873.69" y="240.21" width="99.75" height="81.07"/><circle class="cls-6" cx="925.8" cy="179.99" r="38.22"/><circle class="cls-7" cx="731.82" cy="489.78" r="38.22"/><circle class="cls-7" cx="824.47" cy="489.78" r="38.22"/></g><g><rect class="cls-3" x="56.16" y="43.33" width="183.15" height="81.07"/><rect class="cls-8" x="58.65" y="431.29" width="81.07" height="196.88"/><circle class="cls-13" cx="199.94" cy="592.37" r="38.22"/><rect class="cls-9" x="159.4" y="338.65" width="81.07" height="196.88"/><circle class="cls-5" cx="99.18" cy="380.24" r="38.22"/><rect class="cls-4" x="56.16" y="240.21" width="183.15" height="81.07"/><circle class="cls-14" cx="94.55" cy="179.99" r="38.22"/><circle class="cls-15" cx="187.2" cy="179.99" r="38.22"/></g></g></g></svg>