<?xml version="1.0" encoding="UTF-8"?><svg id="Layer_2" xmlns="http://www.w3.org/2000/svg" viewBox="0 0 509.79 559.44"><defs><style>.cls-1{letter-spacing:.02em;}.cls-2,.cls-3{fill:#b24040;}.cls-3{font-family:ITCAvantGardePro-Md, 'ITC Avant Garde Gothic Pro';font-size:54.76px;}.cls-4{letter-spacing:.01em;}.cls-5{letter-spacing:.03em;}.cls-6{letter-spacing:0em;}</style></defs><g id="Layer_1-2"><g><g><path class="cls-2" d="M0,50.86c0-15.32,1.48-22.23,5.92-31.12C12.35,7.9,27.17,0,42.97,0s29.62,7.41,35.06,19.26c2.96,5.92,4.44,15.3,4.44,30.12V188.48c0,33.09-13.83,49.88-40.99,49.88-17.79,0-34.57-10.37-38.53-24.2-1.97-6.41-2.96-14.32-2.96-27.65V50.86ZM24.7,193.42c0,16.8,4.93,24.2,16.29,24.2s15.8-7.9,15.8-26.17V48.39c0-19.76-2.96-24.7-15.8-24.7s-16.29,5.92-16.29,29.64V193.42Z"/><path class="cls-2" d="M122.73,80.31c0,9.17,1.98,12.83,11.86,18.76l16.29,9.38c14.32,8.41,17.79,26.69,17.79,42.49v47.41c0,27.17-11.36,40-35.07,40s-33.58-12.83-33.58-39.5v-40h23.21v40.99c0,13.33,2.47,17.29,11.36,17.29,9.38,0,10.86-2.97,10.86-18.77v-40c0-13.33-1.48-28.16-10.86-33.6l-14.82-8.39c-16.79-10.86-20.74-17.29-20.26-34.57V46.73c0-16.29,1.48-23.7,5.44-29.62,6.42-9.39,17.29-14.33,30.62-14.33,23.21,0,35.06,12.85,35.06,38.03v39.01h-23.71V41.3c0-13.33-2.96-18.27-11.35-18.27-4.45,0-8.39,1.48-10.38,4.44-1.97,2.97-2.85,7.44-2.85,11.85l.38,41Z"/><path class="cls-2" d="M300.95,332.15c0,8.79,1.98,12.3,11.86,17.97l16.29,8.99c14.32,8.05,17.79,25.57,17.79,40.71v45.42c0,26.02-11.36,38.32-35.07,38.32s-33.58-12.3-33.58-37.84v-38.32h23.21v39.26c0,12.77,2.47,16.56,11.36,16.56,9.38,0,10.86-2.84,10.86-17.98v-38.32c0-12.77-1.48-26.98-10.86-32.19l-14.82-8.04c-16.79-10.41-20.74-16.56-20.26-33.12v-20.27c0-15.61,1.48-22.7,5.44-28.38,6.42-9,17.29-13.73,30.62-13.73,23.21,0,35.06,12.31,35.06,36.43v24.05h-23.71v-23.58c0-12.77-2.96-17.5-11.35-17.5-4.45,0-8.39,1.42-10.38,4.25-1.97,2.84-2.85,7.12-2.85,11.35l.38,25.95Z"/><path class="cls-2" d="M183.69,44.75c0-14.82,1.48-22.71,5.92-28.65,6.42-8.39,17.77-13.33,30.12-13.33,13.83,0,25.68,6.42,30.12,16.3,1.98,4.44,2.97,10.86,2.97,23.21v123.9c0,15.8,0,17.77,3.46,22.71h-21.23c-1.48-1.97-1.98-3.46-4.45-11.36-6.41,8.39-14.32,12.85-23.7,12.85-8.89,0-16.3-4.94-19.76-12.85-2.47-4.94-3.46-14.32-3.46-30.12v-16.23c0-27.65,9.38-40.99,28.15-40.99,6.91,0,13.33,2.46,17.28,6.91V41.3c0-13.33-2.46-17.29-10.86-17.29-7.9,0-12.83,6.91-11.85,15.8,.5,1.48,.5,2.96,.5,2.96v36.06h-23.21V44.75Zm23.21,109.08c0,10.86,2.47,14.82,9.38,14.82,7.41,0,12.83-4.94,12.83-12.35v-34.02c0-7.9-4.44-12.83-11.85-12.83-7.9,0-10.37,3.94-10.37,17.28v27.11Z"/><path class="cls-2" d="M302.66,5.73l.52,11.36c6.91-8.39,21.5-12.35,31.06-12.35,9.03,0,14.87,3.46,20.18,13.33,7.43-8.89,23.62-13.33,33.7-13.33,12.22,0,21.78,6.91,23.9,17.77,.54,4.45,1.06,8.89,1.06,16.79v217.05h-23.89V44.25c0-17.28-1.6-20.24-11.16-20.24-5.83,0-17.78,2.97-19.9,7.41v224.94h-25.49V38.82c0-11.36-2.66-15.32-9.55-15.32-5.85,0-16.72,2.97-20.44,9.88v222.97h-24.96V5.73h24.96Z"/><path class="cls-2" d="M437.2,43.26c0-14.82,1.48-22.71,5.92-28.65,6.42-8.39,17.77-13.33,30.12-13.33,13.83,0,25.68,6.42,30.12,16.3,1.98,4.44,2.97,10.86,2.97,23.21V212.18c0,15.8,0,17.77,3.46,22.71h-21.23c-1.48-1.97-1.98-3.46-4.45-11.36-6.41,8.39-14.32,12.85-23.7,12.85-8.89,0-16.3-4.94-19.76-12.85-2.47-4.94-3.46-14.32-3.46-30.12v-63.72c0-27.65,9.38-40.99,28.15-40.99,6.91,0,13.33,2.46,17.28,6.91V39.81c0-13.33-2.46-17.29-10.86-17.29-7.9,0-12.83,6.91-11.85,15.8,.5,1.48,.5,2.96,.5,2.96v36.06h-23.21V43.26Zm23.21,156.57c0,10.86,2.47,14.82,9.38,14.82,7.41,0,12.83-4.94,12.83-12.35V120.8c0-7.9-4.44-12.83-11.85-12.83-7.9,0-10.37,3.94-10.37,17.28v74.6Z"/><path class="cls-2" d="M55.3,390.72v90.85H31.11v-90.85L0,262.8H25.18l18.77,98.07,18.76-98.07h23.71l-31.12,127.92Z"/><path class="cls-2" d="M167.9,434.66c0,35.06-10.88,48.88-38.53,48.88-25.18,0-36.05-12.83-36.05-42.96v-139.27c0-30.12,10.37-41.48,37.53-41.48s37.04,11.86,37.04,39.51v135.32Zm-50.88,8.88c0,13.33,3.95,18.77,13.33,18.77,9.88,0,12.85-4.94,12.85-19.26v-141.24c0-16.3-2.47-20.74-12.85-20.74s-13.33,4.94-13.33,19.76v142.71Z"/><path class="cls-2" d="M233.57,481.58v-9.88c-7.9,7.91-13.83,10.38-22.23,10.38-15.8,0-23.7-11.36-23.7-34.08V203.44h23.21v236.65c0,16.79,1.97,22.23,9.38,22.23,5.44,0,10.38-3.46,12.85-8.89V203.44h23.2V481.58h-22.71Z"/><path class="cls-2" d="M386.36,441.08c0,16.79,2.47,21.24,12.34,21.24,8.89,0,10.86-3.46,10.86-20.24v-45.44h23.71v48.39c0,25.68-11.36,38.52-35.06,38.52s-36.55-12.83-36.55-39.5v-131.88c0-27.65,11.85-40.99,37.53-40.99,13.83,0,22.71,3.95,29.14,11.85,1.48,1.98,4.94,16.79,4.94,19.76v73.1h-46.91v65.18Zm22.21-87.9l.5-42c0-13.82-1.98-16.79-10.86-16.79s-12.35,5.92-12.35,20.74l.5,38.04h22.21Z"/><path class="cls-2" d="M509.79,270.36h-19.49c-6.42,0-7.91,2.47-7.91,11.86v72.32h16.3v21.24h-16.3v107.76h-25.18v-108.26h-14.82v-21.24h14.82l.5-65.41c0-27.65-1.31-40,27.65-40h24.43v21.73Z"/></g><text class="cls-3" transform="translate(18.21 545.37)"><tspan class="cls-4" x="0" y="0">G</tspan><tspan class="cls-6" x="46.33" y="0">r</tspan><tspan class="cls-5" x="64.24" y="0">a</tspan><tspan class="cls-1" x="104.1" y="0">phic designer</tspan></text></g></g></svg>