<?xml version="1.0" encoding="utf-8"?>
<!-- Generator: Adobe Illustrator 26.5.2, SVG Export Plug-In . SVG Version: 6.00 Build 0)  -->
<svg version="1.1" xmlns="http://www.w3.org/2000/svg" xmlns:xlink="http://www.w3.org/1999/xlink" x="0px" y="0px"
	 viewBox="0 0 216 144" style="enable-background:new 0 0 216 144;" xml:space="preserve">
<style type="text/css">
<g id="Layer_1">
	<rect x="0" class="st0" width="216" height="144"/>
	<g>
		<circle class="st1" cx="174.7" cy="102.2" r="19.2"/>
		<circle class="st1" cx="110.2" cy="85.1" r="16.1"/>
		<circle class="st1" cx="153.1" cy="64.9" r="4.9"/>
		<circle class="st1" cx="178" cy="37.9" r="15.9"/>
		<circle class="st1" cx="140.7" cy="38.5" r="9.3"/>
		<g>
			<g>
				<path class="st1" d="M206.5,134.5h-125V9.5h125V134.5z M93.8,122.2h100.4V21.8H93.8V122.2z"/>
			</g>
		</g>
		
			<rect x="104.9" y="78.4" transform="matrix(0.7792 -0.6268 0.6268 0.7792 -22.3324 111.8563)" class="st1" width="85.4" height="18.4"/>
		
			<rect x="120.7" y="48" transform="matrix(0.9992 3.943685e-02 -3.943685e-02 0.9992 2.2369 -5.6112)" class="st1" width="45.3" height="11.8"/>
		
			<rect x="84.4" y="40.8" transform="matrix(0.4178 0.9085 -0.9085 0.4178 104.5438 -71.6883)" class="st1" width="47.6" height="9.8"/>
	</g>
	<g>
		<g>
			<g>
				<g>
					<g>
						<path class="st1" d="M17.2,19.3c0-1.4,0.1-2,0.5-2.8c0.6-1.1,1.9-1.8,3.4-1.8c1.5,0,2.7,0.7,3.2,1.8c0.3,0.5,0.4,1.4,0.4,2.7
							v12.7c0,3-1.3,4.6-3.7,4.6c-1.6,0-3.2-0.9-3.5-2.2c-0.2-0.6-0.3-1.3-0.3-2.5V19.3z M19.4,32.3c0,1.5,0.4,2.2,1.5,2.2
							c1,0,1.4-0.7,1.4-2.4V19.1c0-1.8-0.3-2.3-1.4-2.3c-1.2,0-1.5,0.5-1.5,2.7V32.3z"/>
					</g>
				</g>
				<g>
					<g>
						<path class="st1" d="M28.4,22c0,0.8,0.2,1.2,1.1,1.7l1.5,0.9c1.3,0.8,1.6,2.4,1.6,3.9v4.3c0,2.5-1,3.7-3.2,3.7
							c-2.1,0-3.1-1.2-3.1-3.6v-3.7h2.1v3.7c0,1.2,0.2,1.6,1,1.6c0.9,0,1-0.3,1-1.7v-3.7c0-1.2-0.1-2.6-1-3.1l-1.4-0.8
							c-1.5-1-1.9-1.6-1.8-3.2v-3.2c0-1.5,0.1-2.2,0.5-2.7c0.6-0.9,1.6-1.3,2.8-1.3c2.1,0,3.2,1.2,3.2,3.5V22h-2.2v-3.5
							c0-1.2-0.3-1.7-1-1.7c-0.4,0-0.8,0.1-0.9,0.4c-0.2,0.3-0.3,0.7-0.3,1.1L28.4,22z"/>
					</g>
				</g>
				<g>
					<g>
						<path class="st1" d="M44.6,45c0,0.8,0.2,1.1,1.1,1.6l1.5,0.8c1.3,0.7,1.6,2.3,1.6,3.7v4.1c0,2.4-1,3.5-3.2,3.5
							c-2.1,0-3.1-1.1-3.1-3.5v-3.5h2.1v3.6c0,1.2,0.2,1.5,1,1.5c0.9,0,1-0.3,1-1.6v-3.5c0-1.2-0.1-2.5-1-2.9l-1.4-0.7
							c-1.5-1-1.9-1.5-1.8-3v-1.9c0-1.4,0.1-2.1,0.5-2.6c0.6-0.8,1.6-1.3,2.8-1.3c2.1,0,3.2,1.1,3.2,3.3v2.2h-2.2v-2.2
							c0-1.2-0.3-1.6-1-1.6c-0.4,0-0.8,0.1-0.9,0.4c-0.2,0.3-0.3,0.7-0.3,1L44.6,45z"/>
					</g>
				</g>
				<g>
					<g>
						<path class="st1" d="M33.9,18.7c0-1.4,0.1-2.1,0.5-2.6c0.6-0.8,1.6-1.2,2.7-1.2c1.3,0,2.3,0.6,2.7,1.5c0.2,0.4,0.3,1,0.3,2.1
							v11.3c0,1.4,0,1.6,0.3,2.1h-1.9c-0.1-0.2-0.2-0.3-0.4-1C37.6,31.6,36.9,32,36,32c-0.8,0-1.5-0.5-1.8-1.2
							c-0.2-0.5-0.3-1.3-0.3-2.7v-1.5c0-2.5,0.9-3.7,2.6-3.7c0.6,0,1.2,0.2,1.6,0.6v-5.1c0-1.2-0.2-1.6-1-1.6
							c-0.7,0-1.2,0.6-1.1,1.4c0,0.1,0,0.3,0,0.3v3.3h-2.1V18.7z M36,28.7c0,1,0.2,1.4,0.9,1.4c0.7,0,1.2-0.5,1.2-1.1v-3.1
							c0-0.7-0.4-1.2-1.1-1.2c-0.7,0-0.9,0.4-0.9,1.6V28.7z"/>
					</g>
				</g>
				<g>
					<g>
						<path class="st1" d="M44.8,15.2l0,1c0.6-0.8,2-1.1,2.8-1.1c0.8,0,1.4,0.3,1.8,1.2c0.7-0.8,2.2-1.2,3.1-1.2
							c1.1,0,2,0.6,2.2,1.6c0,0.4,0.1,0.8,0.1,1.5v19.8h-2.2V18.7c0-1.6-0.1-1.8-1-1.8c-0.5,0-1.6,0.3-1.8,0.7v20.5h-2.3V18.2
							c0-1-0.2-1.4-0.9-1.4c-0.5,0-1.5,0.3-1.9,0.9v20.4h-2.3V15.2H44.8z"/>
					</g>
				</g>
				<g>
					<g>
						<path class="st1" d="M57.1,18.6c0-1.4,0.1-2.1,0.5-2.6c0.6-0.8,1.6-1.2,2.7-1.2c1.3,0,2.3,0.6,2.7,1.5c0.2,0.4,0.3,1,0.3,2.1
							V34c0,1.4,0,1.6,0.3,2.1h-1.9c-0.1-0.2-0.2-0.3-0.4-1c-0.6,0.8-1.3,1.2-2.2,1.2c-0.8,0-1.5-0.5-1.8-1.2
							c-0.2-0.5-0.3-1.3-0.3-2.7v-5.8c0-2.5,0.9-3.7,2.6-3.7c0.6,0,1.2,0.2,1.6,0.6v-5.1c0-1.2-0.2-1.6-1-1.6
							c-0.7,0-1.2,0.6-1.1,1.4c0,0.1,0,0.3,0,0.3v3.3h-2.1V18.6z M59.2,32.9c0,1,0.2,1.4,0.9,1.4c0.7,0,1.2-0.5,1.2-1.1v-7.4
							c0-0.7-0.4-1.2-1.1-1.2c-0.7,0-0.9,0.4-0.9,1.6V32.9z"/>
					</g>
				</g>
				<g>
					<g>
						<path class="st1" d="M22.2,50.3v8.3H20v-8.3l-2.8-11.7h2.3l1.7,9l1.7-9H25L22.2,50.3z"/>
					</g>
				</g>
				<g>
					<g>
						<path class="st1" d="M32.5,54.3c0,3.2-1,4.5-3.5,4.5c-2.3,0-3.3-1.2-3.3-3.9V42.2c0-2.7,0.9-3.8,3.4-3.8
							c2.4,0,3.4,1.1,3.4,3.6V54.3z M27.8,55.2c0,1.2,0.4,1.7,1.2,1.7c0.9,0,1.2-0.5,1.2-1.8V42.2c0-1.5-0.2-1.9-1.2-1.9
							c-0.9,0-1.2,0.5-1.2,1.8V55.2z"/>
					</g>
				</g>
				<g>
					<g>
						<path class="st1" d="M38.5,58.6v-0.9c-0.7,0.7-1.3,0.9-2,0.9c-1.4,0-2.2-1-2.2-3.1V33.2h2.1v21.6c0,1.5,0.2,2,0.9,2
							c0.5,0,0.9-0.3,1.2-0.8V33.2h2.1v25.4H38.5z"/>
					</g>
				</g>
				<g>
					<g>
						<path class="st1" d="M52.4,54.9c0,1.5,0.2,1.9,1.1,1.9c0.8,0,1-0.3,1-1.8v-4.1h2.2v4.4c0,2.3-1,3.5-3.2,3.5
							c-2.2,0-3.3-1.2-3.3-3.6v-12c0-2.5,1.1-3.7,3.4-3.7c1.3,0,2.1,0.4,2.7,1.1c0.1,0.2,0.5,1.5,0.5,1.8V49h-4.3V54.9z M54.5,46.9
							l0-3.8c0-1.3-0.2-1.5-1-1.5c-0.8,0-1.1,0.5-1.1,1.9l0,3.5H54.5z"/>
					</g>
				</g>
				<g>
					<g>
						<path class="st1" d="M63.7,39.3h-1.8c-0.6,0-0.7,0.2-0.7,1.1V47h1.5V49h-1.5v9.8h-2.3v-9.9h-1.4V47h1.4l0-6
							c0-2.5-0.1-3.7,2.5-3.7h2.2V39.3z"/>
					</g>
				</g>
			</g>
		</g>
		<g>
			<text transform="matrix(1 0 0 1 18.8154 65.9126)" class="st1 st2 st3">Graphic designer</text>
		</g>
	</g>
	<g>
		<text transform="matrix(1 0 0 1 12.3149 131.3486)" class="st1 st2 st4">www.sampolarDesign.com</text>
	</g>
	<g>
		<text transform="matrix(1 0 0 1 25.7624 107.2844)" class="st1 st18 st19">@sampolar.Design</text>
	</g>
	<g>
		<text transform="matrix(1 0 0 1 17.3964 113.7109)" class="st1 st18 st19">osamayousef752@gmail.com</text>
	</g>
	<path class="st20" d="M21.9,104.4c0.6,0,0.6,0,0.9,0c0.6,0,0.9,0.3,0.9,0.9c0,0.2,0,0.3,0,0.9c0,0.6,0,0.6,0,0.9
		c0,0.6-0.3,0.9-0.9,0.9c-0.2,0-0.3,0-0.9,0c-0.6,0-0.6,0-0.9,0c-0.6,0-0.9-0.3-0.9-0.9c0-0.2,0-0.3,0-0.9c0-0.6,0-0.6,0-0.9
		c0-0.6,0.3-0.9,0.9-0.9C21.3,104.4,21.4,104.4,21.9,104.4z M21.9,104c-0.6,0-0.7,0-0.9,0c-0.8,0-1.2,0.5-1.3,1.3c0,0.2,0,0.3,0,0.9
		s0,0.7,0,0.9c0,0.8,0.5,1.2,1.3,1.3c0.2,0,0.3,0,0.9,0c0.6,0,0.7,0,0.9,0c0.8,0,1.2-0.5,1.3-1.3c0-0.2,0-0.3,0-0.9s0-0.7,0-0.9
		c0-0.8-0.5-1.2-1.3-1.3C22.6,104,22.5,104,21.9,104z M21.9,105.1c-0.6,0-1.1,0.5-1.1,1.1s0.5,1.1,1.1,1.1c0.6,0,1.1-0.5,1.1-1.1
		C23,105.6,22.5,105.1,21.9,105.1z M21.9,106.9c-0.4,0-0.7-0.3-0.7-0.7c0-0.4,0.3-0.7,0.7-0.7s0.7,0.3,0.7,0.7
		C22.7,106.6,22.3,106.9,21.9,106.9z M23.1,104.8c-0.1,0-0.3,0.1-0.3,0.3c0,0.1,0.1,0.3,0.3,0.3c0.1,0,0.3-0.1,0.3-0.3
		C23.4,104.9,23.2,104.8,23.1,104.8z"/>
	<path class="st1" d="M13.2,110.1c1.1,0,1.9,0.9,1.9,1.9c0,1.1-0.9,1.9-1.9,1.9s-1.9-0.9-1.9-1.9C11.3,111,12.1,110.1,13.2,110.1z
		 M13.2,109.8c-1.3,0-2.3,1-2.3,2.3c0,1.3,1,2.3,2.3,2.3s2.3-1,2.3-2.3C15.5,110.8,14.5,109.8,13.2,109.8z M13.2,112.2l-1.2-0.9h2.3
		L13.2,112.2z M13.2,112.4l-1.2-0.9v1.3h2.3v-1.3L13.2,112.4z"/>
</g>
<g id="Layer_2" class="st21">
	<g class="st22">
		<rect x="81.5" y="9.5" class="st23" width="125" height="125"/>
		<rect x="16.5" y="14.5" class="st23" width="47" height="52"/>
		<rect x="13.5" y="103.5" class="st23" width="56" height="6"/>
		<rect x="10.5" y="109.5" class="st23" width="59" height="6"/>
	</g>
</g>
</svg>
