<?xml version="1.0" encoding="UTF-8"?><svg id="Layer_2" xmlns="http://www.w3.org/2000/svg" viewBox="0 0 1010.88 673.92"><defs><style>.cls-1{letter-spacing:.03em;}.cls-2{fill:#b24040;}.cls-3{letter-spacing:.02em;}.cls-4{font-family:ITCAvantGardePro-Md, 'ITC Avant Garde Gothic Pro';font-size:23.4px;}.cls-4,.cls-5{fill:#f7dab0;}.cls-6{letter-spacing:.01em;}.cls-7{letter-spacing:0em;}</style></defs><g id="Layer_1-2"><rect class="cls-2" width="1010.88" height="673.92"/><g><circle class="cls-5" cx="817.81" cy="478.49" r="89.64"/><circle class="cls-5" cx="515.95" cy="398.33" r="75.41"/><circle class="cls-5" cx="716.35" cy="303.89" r="23.09"/><circle class="cls-5" cx="832.91" cy="177.5" r="74.54"/><circle class="cls-5" cx="658.34" cy="180.08" r="43.66"/><path class="cls-5" d="M966.42,629.46H381.42V44.46H966.42V629.46Zm-527.46-57.54h469.92V102H438.96v469.92Z"/><rect class="cls-5" x="490.83" y="366.95" width="399.82" height="86.27" transform="translate(-104.52 523.49) rotate(-38.81)"/><rect class="cls-5" x="564.93" y="224.54" width="211.88" height="55.36" transform="translate(10.47 -26.26) rotate(2.26)"/><rect class="cls-5" x="395" y="191.17" width="222.82" height="45.66" transform="translate(489.27 -335.5) rotate(65.3)"/></g><g><g><path class="cls-5" d="M80.27,90.36c0-6.54,.63-9.5,2.53-13.3,2.74-5.06,9.08-8.44,15.83-8.44s12.66,3.17,14.98,8.23c1.26,2.53,1.9,6.54,1.9,12.87v59.43c0,14.14-5.91,21.31-17.51,21.31-7.6,0-14.77-4.43-16.46-10.34-.84-2.74-1.26-6.12-1.26-11.81v-57.95Zm10.55,60.91c0,7.18,2.11,10.34,6.96,10.34s6.75-3.37,6.75-11.18v-61.12c0-8.44-1.26-10.55-6.75-10.55s-6.96,2.53-6.96,12.66v59.85Z"/><path class="cls-5" d="M132.71,102.94c0,3.92,.85,5.48,5.07,8.02l6.96,4.01c6.12,3.59,7.6,11.4,7.6,18.16v20.26c0,11.61-4.85,17.09-14.98,17.09s-14.35-5.48-14.35-16.88v-17.09h9.92v17.51c0,5.7,1.06,7.39,4.85,7.39,4.01,0,4.64-1.27,4.64-8.02v-17.09c0-5.7-.63-12.03-4.64-14.36l-6.33-3.59c-7.17-4.64-8.86-7.39-8.65-14.77v-14.98c0-6.96,.63-10.13,2.32-12.66,2.74-4.01,7.39-6.12,13.08-6.12,9.92,0,14.98,5.49,14.98,16.25v16.67h-10.13v-16.46c0-5.7-1.26-7.81-4.85-7.81-1.9,0-3.59,.63-4.43,1.9-.84,1.27-1.22,3.18-1.22,5.06l.16,17.52Z"/><path class="cls-5" d="M208.85,210.54c0,3.76,.85,5.25,5.07,7.68l6.96,3.84c6.12,3.44,7.6,10.92,7.6,17.39v19.4c0,11.12-4.85,16.37-14.98,16.37s-14.35-5.25-14.35-16.17v-16.37h9.92v16.78c0,5.46,1.06,7.08,4.85,7.08,4.01,0,4.64-1.21,4.64-7.68v-16.37c0-5.46-.63-11.53-4.64-13.75l-6.33-3.44c-7.17-4.45-8.86-7.08-8.65-14.15v-8.66c0-6.67,.63-9.7,2.32-12.12,2.74-3.84,7.39-5.87,13.08-5.87,9.92,0,14.98,5.26,14.98,15.57v10.28h-10.13v-10.07c0-5.46-1.26-7.48-4.85-7.48-1.9,0-3.59,.61-4.43,1.82-.84,1.21-1.22,3.04-1.22,4.85l.16,11.09Z"/><path class="cls-5" d="M158.75,87.75c0-6.33,.63-9.7,2.53-12.24,2.74-3.59,7.59-5.7,12.87-5.7,5.91,0,10.97,2.74,12.87,6.96,.85,1.9,1.27,4.64,1.27,9.92v52.93c0,6.75,0,7.59,1.48,9.7h-9.07c-.63-.84-.85-1.48-1.9-4.85-2.74,3.59-6.12,5.49-10.13,5.49-3.8,0-6.96-2.11-8.44-5.49-1.06-2.11-1.48-6.12-1.48-12.87v-6.94c0-11.81,4.01-17.51,12.03-17.51,2.95,0,5.7,1.05,7.38,2.95v-23.84c0-5.7-1.05-7.39-4.64-7.39-3.37,0-5.48,2.95-5.06,6.75,.21,.63,.21,1.26,.21,1.26v15.41h-9.92v-14.56Zm9.92,46.6c0,4.64,1.06,6.33,4.01,6.33,3.17,0,5.48-2.11,5.48-5.28v-14.53c0-3.37-1.9-5.48-5.06-5.48-3.37,0-4.43,1.68-4.43,7.38v11.58Z"/><path class="cls-5" d="M209.58,71.08l.22,4.85c2.95-3.59,9.19-5.28,13.27-5.28,3.86,0,6.35,1.48,8.62,5.7,3.17-3.8,10.09-5.7,14.4-5.7,5.22,0,9.31,2.95,10.21,7.59,.23,1.9,.45,3.8,.45,7.17v92.73h-10.21V87.53c0-7.38-.68-8.65-4.77-8.65-2.49,0-7.6,1.27-8.5,3.17v96.11h-10.89V85.21c0-4.85-1.13-6.54-4.08-6.54-2.5,0-7.15,1.27-8.73,4.22v95.27h-10.66V71.08h10.66Z"/><path class="cls-5" d="M267.06,87.11c0-6.33,.63-9.7,2.53-12.24,2.74-3.59,7.59-5.7,12.87-5.7,5.91,0,10.97,2.74,12.87,6.96,.85,1.9,1.27,4.64,1.27,9.92v73.23c0,6.75,0,7.59,1.48,9.7h-9.07c-.63-.84-.85-1.48-1.9-4.85-2.74,3.59-6.12,5.49-10.13,5.49-3.8,0-6.96-2.11-8.44-5.49-1.06-2.11-1.48-6.12-1.48-12.87v-27.23c0-11.81,4.01-17.51,12.03-17.51,2.95,0,5.7,1.05,7.38,2.95v-23.84c0-5.7-1.05-7.39-4.64-7.39-3.37,0-5.48,2.95-5.06,6.75,.21,.63,.21,1.26,.21,1.26v15.41h-9.92v-14.56Zm9.92,66.89c0,4.64,1.06,6.33,4.01,6.33,3.17,0,5.48-2.11,5.48-5.28v-34.82c0-3.37-1.9-5.48-5.06-5.48-3.37,0-4.43,1.68-4.43,7.38v31.87Z"/><path class="cls-5" d="M103.9,235.56v38.82h-10.34v-38.82l-13.29-54.65h10.76l8.02,41.9,8.02-41.9h10.13l-13.3,54.65Z"/><path class="cls-5" d="M152,254.34c0,14.98-4.65,20.88-16.46,20.88-10.76,0-15.4-5.48-15.4-18.35v-59.5c0-12.87,4.43-17.72,16.04-17.72s15.83,5.07,15.83,16.88v57.81Zm-21.74,3.79c0,5.7,1.69,8.02,5.7,8.02,4.22,0,5.49-2.11,5.49-8.23v-60.35c0-6.96-1.06-8.86-5.49-8.86s-5.7,2.11-5.7,8.44v60.97Z"/><path class="cls-5" d="M180.06,274.38v-4.22c-3.37,3.38-5.91,4.43-9.5,4.43-6.75,0-10.13-4.85-10.13-14.56v-104.49h9.92v101.11c0,7.17,.84,9.5,4.01,9.5,2.32,0,4.43-1.48,5.49-3.8v-106.81h9.91v118.83h-9.7Z"/><path class="cls-5" d="M245.34,257.08c0,7.17,1.06,9.08,5.27,9.08,3.8,0,4.64-1.48,4.64-8.65v-19.41h10.13v20.68c0,10.97-4.85,16.46-14.98,16.46s-15.61-5.48-15.61-16.88v-56.34c0-11.81,5.06-17.51,16.04-17.51,5.91,0,9.7,1.69,12.45,5.06,.63,.85,2.11,7.17,2.11,8.44v31.23h-20.04v27.85Zm9.49-37.55l.21-17.94c0-5.9-.85-7.17-4.64-7.17s-5.28,2.53-5.28,8.86l.21,16.25h9.49Z"/><path class="cls-5" d="M298.08,184.14h-8.33c-2.74,0-3.38,1.06-3.38,5.07v30.9h6.96v9.08h-6.96v46.04h-10.76v-46.26h-6.33v-9.08h6.33l.21-27.95c0-11.81-.56-17.09,11.81-17.09h10.44v9.28Z"/></g><text class="cls-4" transform="translate(88.06 308.47)"><tspan class="cls-6" x="0" y="0">G</tspan><tspan class="cls-7" x="19.79" y="0">r</tspan><tspan class="cls-1" x="27.44" y="0">a</tspan><tspan class="cls-3" x="44.48" y="0">phic designer</tspan></text></g></g></svg>