<?xml version="1.0" encoding="UTF-8"?><svg id="Layer_2" xmlns="http://www.w3.org/2000/svg"
 viewBox="0 0 43.61 3.32"><defs><style>.cls-1{fill:#efd5ab;}</style></defs><g id="Layer_1-2"><g><path class="cls-1" d="M1.67,1.67c0,.63-.44,.91-.85,.91-.46,0-.82-.34-.82-.88,0-.57,.37-.91,.85-.91s.82,.36,.82,.88Zm-1.35,.02c0,.37,.21,.66,.52,.66s.52-.28,.52-.66c0-.29-.14-.66-.51-.66s-.52,.34-.52,.66Z"/><path class="cls-1" d="M2.07,2.22c.09,.06,.25,.12,.41,.12,.23,0,.33-.11,.33-.25,0-.15-.09-.23-.32-.31-.31-.11-.45-.28-.45-.48,0-.28,.22-.5,.59-.5,.17,0,.32,.05,.42,.11l-.08,.23c-.07-.04-.19-.1-.35-.1-.18,0-.29,.11-.29,.23,0,.14,.1,.2,.32,.29,.3,.11,.45,.26,.45,.51,0,.3-.23,.51-.64,.51-.19,0-.36-.05-.48-.12l.08-.24Z"/><path class="cls-1" d="M4.51,2.54l-.02-.21h-.01c-.1,.13-.28,.25-.52,.25-.35,0-.52-.24-.52-.49,0-.41,.37-.64,1.03-.63v-.04c0-.14-.04-.39-.39-.39-.16,0-.32,.05-.44,.13l-.07-.2c.14-.09,.35-.15,.56-.15,.52,0,.65,.36,.65,.7v.64c0,.15,0,.29,.03,.41h-.28Zm-.05-.87c-.34,0-.72,.05-.72,.38,0,.2,.13,.3,.29,.3,.22,0,.36-.14,.41-.29,.01-.03,.02-.07,.02-.1v-.3Z"/><path class="cls-1" d="M5.32,1.3c0-.18,0-.32-.01-.46h.27v.28h.02c.1-.16,.25-.31,.54-.31,.23,0,.41,.14,.48,.34h0c.05-.09,.12-.17,.19-.22,.1-.08,.21-.12,.38-.12,.23,0,.56,.15,.56,.74v1h-.3v-.97c0-.33-.12-.53-.37-.53-.18,0-.31,.13-.37,.28-.01,.04-.02,.1-.02,.16v1.05h-.3V1.52c0-.27-.12-.47-.36-.47-.19,0-.33,.16-.38,.31-.02,.05-.02,.1-.02,.15v1.03h-.3V1.3Z"/><path class="cls-1" d="M9.26,2.54l-.02-.21h-.01c-.09,.13-.28,.25-.52,.25-.35,0-.52-.24-.52-.49,0-.41,.37-.64,1.03-.63v-.04c0-.14-.04-.39-.39-.39-.16,0-.32,.05-.44,.13l-.07-.2c.14-.09,.35-.15,.56-.15,.52,0,.65,.36,.65,.7v.64c0,.15,0,.29,.03,.41h-.28Zm-.05-.87c-.34,0-.72,.05-.72,.38,0,.2,.13,.3,.29,.3,.22,0,.36-.14,.41-.29,.01-.03,.02-.07,.02-.1v-.3Z"/><path class="cls-1" d="M10.15,.83l.37,1.01c.04,.11,.08,.25,.11,.35h0c.03-.1,.07-.23,.11-.36l.34-1h.33l-.47,1.22c-.22,.58-.37,.88-.59,1.07-.15,.13-.3,.19-.38,.2l-.08-.26c.08-.03,.18-.07,.27-.15,.08-.07,.19-.19,.26-.34,.01-.03,.02-.06,.02-.07s0-.04-.02-.08l-.63-1.57h.34Z"/><path class="cls-1" d="M13.26,1.67c0,.63-.44,.91-.85,.91-.46,0-.82-.34-.82-.88,0-.57,.37-.91,.85-.91s.82,.36,.82,.88Zm-1.35,.02c0,.37,.21,.66,.52,.66s.52-.28,.52-.66c0-.29-.14-.66-.51-.66s-.52,.34-.52,.66Z"/><path class="cls-1" d="M15.14,2.08c0,.18,0,.33,.01,.46h-.27l-.02-.28h0c-.08,.14-.26,.32-.56,.32-.27,0-.59-.15-.59-.75V.83h.31v.94c0,.32,.1,.54,.38,.54,.21,0,.35-.14,.41-.28,.02-.04,.03-.1,.03-.16V.83h.31v1.24Z"/><path class="cls-1" d="M15.67,2.22c.09,.06,.25,.12,.41,.12,.23,0,.33-.11,.33-.25,0-.15-.09-.23-.32-.31-.31-.11-.45-.28-.45-.48,0-.28,.22-.5,.59-.5,.17,0,.32,.05,.42,.11l-.08,.23c-.07-.04-.19-.1-.35-.1-.18,0-.29,.11-.29,.23,0,.14,.1,.2,.32,.29,.3,.11,.45,.26,.45,.51,0,.3-.23,.51-.64,.51-.19,0-.36-.05-.48-.12l.08-.24Z"/><path class="cls-1" d="M17.33,1.74c0,.42,.27,.59,.58,.59,.22,0,.36-.04,.47-.09l.05,.22c-.11,.05-.3,.11-.57,.11-.52,0-.84-.35-.84-.86s.3-.92,.8-.92c.56,0,.71,.49,.71,.8,0,.06,0,.11-.01,.14h-1.2Zm.91-.22c0-.2-.08-.5-.43-.5-.31,0-.45,.29-.48,.5h.91Z"/><path class="cls-1" d="M19.01,2.54V1.07h-.24v-.24h.24v-.08c0-.24,.05-.46,.2-.6,.12-.11,.27-.16,.42-.16,.11,0,.2,.02,.26,.05l-.04,.24s-.11-.04-.2-.04c-.26,0-.33,.23-.33,.49v.09h.41v.24h-.41v1.47h-.31Z"/><path class="cls-1" d="M21.45,.25v.2l-1,2.09h-.32l.99-2.03h0s-1.12,0-1.12,0V.25h1.45Z"/><path class="cls-1" d="M23.2,.51h-.87l-.09,.59c.05,0,.1-.01,.19-.01,.18,0,.35,.04,.49,.12,.18,.1,.33,.3,.33,.59,0,.45-.36,.78-.85,.78-.25,0-.46-.07-.57-.14l.08-.24c.1,.06,.28,.13,.49,.13,.29,0,.54-.19,.54-.5,0-.3-.2-.51-.66-.51-.13,0-.23,.01-.32,.02l.15-1.1h1.1v.26Z"/><path class="cls-1" d="M23.69,2.54v-.19l.24-.24c.58-.56,.85-.85,.85-1.2,0-.23-.11-.45-.45-.45-.21,0-.38,.11-.49,.19l-.1-.22c.16-.13,.38-.23,.65-.23,.49,0,.7,.34,.7,.67,0,.42-.31,.77-.79,1.23l-.18,.17h0s1.03,0,1.03,0v.26h-1.46Z"/><path class="cls-1" d="M27.24,2.77c-.19,.1-.39,.14-.63,.14-.58,0-1.07-.42-1.07-1.1,0-.73,.5-1.35,1.29-1.35,.61,0,1.03,.43,1.03,1.02,0,.53-.3,.84-.63,.84-.14,0-.27-.09-.26-.31h-.01c-.12,.21-.29,.31-.5,.31s-.38-.17-.38-.44c0-.44,.35-.84,.84-.84,.15,0,.29,.03,.38,.07l-.12,.64c-.05,.27-.01,.39,.11,.4,.18,0,.38-.24,.38-.65,0-.51-.31-.88-.85-.88-.57,0-1.06,.46-1.06,1.17,0,.59,.38,.95,.91,.95,.2,0,.39-.04,.53-.12l.06,.15Zm-.19-1.52s-.1-.03-.18-.03c-.31,0-.56,.29-.56,.63,0,.16,.08,.27,.23,.27,.2,0,.39-.26,.43-.48l.07-.4Z"/><path class="cls-1" d="M29.78,.83c0,.12-.01,.26-.01,.47v.99c0,.39-.08,.63-.24,.78-.17,.16-.41,.2-.62,.2s-.43-.05-.57-.14l.08-.24c.11,.07,.29,.13,.5,.13,.32,0,.55-.17,.55-.6v-.19h0c-.1,.16-.28,.29-.54,.29-.42,0-.73-.36-.73-.83,0-.58,.38-.91,.77-.91,.3,0,.46,.16,.53,.3h0v-.26h.29Zm-.32,.67c0-.05,0-.1-.02-.14-.06-.18-.21-.33-.43-.33-.3,0-.51,.25-.51,.65,0,.33,.17,.61,.5,.61,.19,0,.36-.12,.43-.32,.02-.05,.02-.11,.02-.17v-.31Z"/><path class="cls-1" d="M30.31,1.3c0-.18,0-.32-.01-.46h.27v.28h.02c.1-.16,.25-.31,.54-.31,.23,0,.41,.14,.48,.34h0c.05-.09,.12-.17,.19-.22,.1-.08,.21-.12,.38-.12,.23,0,.56,.15,.56,.74v1h-.3v-.97c0-.33-.12-.53-.37-.53-.18,0-.31,.13-.37,.28-.01,.04-.02,.1-.02,.16v1.05h-.3V1.52c0-.27-.12-.47-.36-.47-.19,0-.33,.16-.38,.31-.02,.05-.02,.1-.02,.15v1.03h-.3V1.3Z"/><path class="cls-1" d="M34.25,2.54l-.02-.21h-.01c-.09,.13-.28,.25-.52,.25-.35,0-.52-.24-.52-.49,0-.41,.37-.64,1.03-.63v-.04c0-.14-.04-.39-.39-.39-.16,0-.32,.05-.44,.13l-.07-.2c.14-.09,.35-.15,.56-.15,.52,0,.65,.36,.65,.7v.64c0,.15,0,.29,.03,.41h-.28Zm-.05-.87c-.34,0-.72,.05-.72,.38,0,.2,.13,.3,.29,.3,.22,0,.36-.14,.41-.29,.01-.03,.02-.07,.02-.1v-.3Z"/><path class="cls-1" d="M35.41,.36c0,.11-.07,.19-.2,.19-.11,0-.19-.08-.19-.19s.08-.19,.19-.19,.19,.08,.19,.19Zm-.35,2.19V.83h.31v1.71h-.31Z"/><path class="cls-1" d="M35.94,.04h.31V2.54h-.31V.04Z"/><path class="cls-1" d="M36.72,2.36c0-.13,.09-.22,.21-.22s.21,.09,.21,.22-.08,.22-.21,.22c-.12,0-.21-.1-.21-.22Z"/><path class="cls-1" d="M38.79,2.48c-.08,.04-.26,.1-.49,.1-.51,0-.85-.35-.85-.87s.36-.91,.92-.91c.18,0,.35,.05,.43,.09l-.07,.24c-.07-.04-.19-.08-.36-.08-.39,0-.6,.29-.6,.64,0,.39,.25,.64,.59,.64,.18,0,.29-.04,.38-.08l.05,.23Z"/><path class="cls-1" d="M40.73,1.67c0,.63-.44,.91-.85,.91-.46,0-.82-.34-.82-.88,0-.57,.37-.91,.85-.91s.82,.36,.82,.88Zm-1.35,.02c0,.37,.21,.66,.52,.66s.52-.28,.52-.66c0-.29-.14-.66-.51-.66s-.52,.34-.52,.66Z"/><path class="cls-1" d="M41.18,1.3c0-.18,0-.32-.01-.46h.27v.28h.02c.1-.16,.25-.31,.54-.31,.23,0,.41,.14,.48,.34h0c.05-.09,.12-.17,.19-.22,.1-.08,.21-.12,.38-.12,.23,0,.56,.15,.56,.74v1h-.3v-.97c0-.33-.12-.53-.37-.53-.18,0-.31,.13-.37,.28-.01,.04-.02,.1-.02,.16v1.05h-.3V1.52c0-.27-.12-.47-.36-.47-.19,0-.33,.16-.38,.31-.02,.05-.02,.1-.02,.15v1.03h-.3V1.3Z"/></g></g></svg>