<?xml version="1.0" encoding="UTF-8"?><svg id="Layer_2" xmlns="http://www.w3.org/2000/svg" viewBox="0 0 27.48 3.24"><defs><style>.cls-1{fill:#efd5ab;}</style></defs><g id="Layer_1-2"><g><path class="cls-1" d="M1.7,2.73c-.19,.1-.39,.14-.63,.14-.58,0-1.07-.42-1.07-1.1C0,1.04,.5,.42,1.29,.42c.61,0,1.03,.43,1.03,1.02,0,.53-.3,.84-.63,.84-.14,0-.27-.09-.26-.31h-.01c-.12,.21-.29,.31-.5,.31s-.38-.17-.38-.44c0-.44,.35-.84,.84-.84,.15,0,.29,.03,.38,.07l-.12,.64c-.05,.27-.01,.39,.11,.4,.18,0,.38-.24,.38-.65,0-.51-.31-.88-.85-.88C.68,.58,.2,1.03,.2,1.75c0,.59,.38,.95,.91,.95,.2,0,.39-.04,.53-.12l.06,.15Zm-.19-1.52s-.1-.03-.18-.03c-.31,0-.56,.29-.56,.63,0,.16,.08,.27,.23,.27,.2,0,.39-.26,.43-.48l.07-.4Z"/><path class="cls-1" d="M2.72,2.19c.09,.06,.25,.12,.41,.12,.23,0,.33-.11,.33-.25,0-.15-.09-.23-.32-.31-.31-.11-.45-.28-.45-.48,0-.28,.22-.5,.59-.5,.17,0,.32,.05,.42,.11l-.08,.23c-.07-.04-.19-.1-.35-.1-.18,0-.29,.11-.29,.23,0,.14,.1,.2,.32,.29,.3,.11,.45,.26,.45,.51,0,.3-.23,.51-.64,.51-.19,0-.36-.05-.48-.12l.08-.24Z"/><path class="cls-1" d="M5.16,2.5l-.02-.21h-.01c-.09,.13-.28,.25-.52,.25-.35,0-.52-.24-.52-.49,0-.41,.37-.64,1.03-.63v-.04c0-.14-.04-.39-.39-.39-.16,0-.32,.05-.44,.13l-.07-.2c.14-.09,.35-.15,.56-.15,.52,0,.65,.36,.65,.7v.64c0,.15,0,.29,.03,.41h-.28Zm-.05-.87c-.34,0-.72,.05-.72,.38,0,.2,.13,.3,.29,.3,.22,0,.36-.14,.41-.29,.01-.03,.02-.07,.02-.1v-.3Z"/><path class="cls-1" d="M5.96,1.26c0-.18,0-.32-.01-.46h.27v.28h.02c.1-.16,.25-.31,.54-.31,.23,0,.41,.14,.48,.34h0c.05-.09,.12-.17,.19-.22,.1-.08,.21-.12,.38-.12,.23,0,.56,.15,.56,.74v1h-.3v-.97c0-.33-.12-.53-.37-.53-.18,0-.31,.13-.37,.28-.01,.04-.02,.1-.02,.16v1.05h-.3V1.48c0-.27-.12-.47-.36-.47-.19,0-.33,.16-.38,.31-.02,.05-.02,.1-.02,.15v1.03h-.3V1.26Z"/><path class="cls-1" d="M8.96,1.35c0-.22,0-.39-.01-.56h.28v.29h.02c.13-.21,.33-.33,.61-.33,.41,0,.72,.35,.72,.87,0,.61-.37,.92-.78,.92-.23,0-.42-.1-.53-.27h0v.93h-.31V1.35Zm.31,.46s0,.09,.01,.13c.06,.21,.24,.36,.47,.36,.33,0,.52-.27,.52-.66,0-.34-.18-.63-.51-.63-.21,0-.41,.15-.47,.38-.01,.04-.02,.08-.02,.13v.29Z"/><path class="cls-1" d="M12.57,1.64c0,.63-.44,.91-.85,.91-.46,0-.82-.34-.82-.88,0-.57,.37-.91,.85-.91s.82,.36,.82,.88Zm-1.35,.02c0,.37,.21,.66,.52,.66s.52-.28,.52-.66c0-.29-.14-.66-.51-.66s-.52,.34-.52,.66Z"/><path class="cls-1" d="M13.01,0h.31V2.5h-.31V0Z"/><path class="cls-1" d="M14.84,2.5l-.02-.21h-.01c-.1,.13-.28,.25-.52,.25-.35,0-.52-.24-.52-.49,0-.41,.37-.64,1.03-.63v-.04c0-.14-.04-.39-.39-.39-.16,0-.32,.05-.44,.13l-.07-.2c.14-.09,.35-.15,.56-.15,.52,0,.65,.36,.65,.7v.64c0,.15,0,.29,.03,.41h-.28Zm-.05-.87c-.34,0-.72,.05-.72,.38,0,.2,.13,.3,.29,.3,.22,0,.36-.14,.41-.29,.01-.03,.02-.07,.02-.1v-.3Z"/><path class="cls-1" d="M15.65,1.33c0-.2,0-.37-.01-.53h.27v.33h.02c.08-.23,.26-.37,.47-.37,.04,0,.06,0,.09,.01v.29s-.06-.01-.11-.01c-.22,0-.37,.17-.42,.4,0,.04-.01,.09-.01,.14v.91h-.31V1.33Z"/><path class="cls-1" d="M16.6,2.32c0-.13,.09-.22,.21-.22s.21,.09,.21,.22-.08,.22-.21,.22c-.12,0-.21-.1-.21-.22Z"/><path class="cls-1" d="M17.47,.16c.19-.03,.41-.05,.65-.05,.44,0,.75,.1,.96,.3,.21,.19,.33,.47,.33,.85s-.12,.71-.34,.92c-.22,.22-.59,.34-1.05,.34-.22,0-.4-.01-.56-.03V.16Zm.31,2.1c.08,.01,.19,.02,.31,.02,.66,0,1.01-.37,1.01-1.01,0-.56-.31-.92-.96-.92-.16,0-.28,.01-.36,.03v1.88Z"/><path class="cls-1" d="M20.05,1.71c0,.42,.27,.59,.58,.59,.22,0,.36-.04,.47-.09l.05,.22c-.11,.05-.3,.11-.57,.11-.52,0-.84-.35-.84-.86s.3-.92,.8-.92c.56,0,.71,.49,.71,.8,0,.06,0,.11-.01,.14h-1.2Zm.91-.22c0-.2-.08-.5-.43-.5-.31,0-.45,.29-.48,.5h.91Z"/><path class="cls-1" d="M21.65,2.19c.09,.06,.25,.12,.41,.12,.23,0,.33-.11,.33-.25,0-.15-.09-.23-.32-.31-.31-.11-.45-.28-.45-.48,0-.28,.22-.5,.59-.5,.17,0,.32,.05,.42,.11l-.08,.23c-.07-.04-.19-.1-.35-.1-.18,0-.29,.11-.29,.23,0,.14,.1,.2,.32,.29,.3,.11,.45,.26,.45,.51,0,.3-.23,.51-.64,.51-.19,0-.36-.05-.48-.12l.08-.24Z"/><path class="cls-1" d="M23.49,.32c0,.11-.07,.19-.2,.19-.11,0-.19-.08-.19-.19s.08-.19,.19-.19,.19,.08,.19,.19Zm-.35,2.19V.8h.31v1.71h-.31Z"/><path class="cls-1" d="M25.49,.8c0,.12-.01,.26-.01,.47v.99c0,.39-.08,.63-.24,.78-.17,.16-.41,.2-.62,.2s-.43-.05-.57-.14l.08-.24c.11,.07,.29,.13,.5,.13,.32,0,.55-.17,.55-.6v-.19h0c-.1,.16-.28,.29-.54,.29-.42,0-.73-.36-.73-.83,0-.58,.38-.91,.77-.91,.3,0,.46,.16,.53,.3h0v-.26h.29Zm-.32,.67c0-.05,0-.1-.02-.14-.06-.18-.21-.33-.43-.33-.3,0-.51,.25-.51,.65,0,.33,.17,.61,.5,.61,.19,0,.36-.12,.43-.32,.02-.05,.02-.11,.02-.17v-.31Z"/><path class="cls-1" d="M26.03,1.26c0-.18,0-.32-.01-.46h.27l.02,.28h0c.08-.16,.28-.32,.56-.32,.24,0,.6,.14,.6,.73v1.02h-.31v-.98c0-.28-.1-.5-.4-.5-.2,0-.36,.14-.42,.32-.01,.04-.02,.09-.02,.14v1.03h-.31V1.26Z"/></g></g></svg>