<?xml version="1.0" encoding="utf-8"?>
<!-- Generator: Adobe Illustrator 26.5.2, SVG Export Plug-In . SVG Version: 6.00 Build 0)  -->
<svg version="1.1" xmlns="http://www.w3.org/2000/svg" xmlns:xlink="http://www.w3.org/1999/xlink" x="0px" y="0px"
	 viewBox="0 0 216 144" style="enable-background:new 0 0 216 144;" xml:space="preserve">
<style type="text/css">
	.st0{fill:#B24040;}
	.st1{fill:#EFD5AB;}
	.st2{font-family:'ITCAvantGardePro-Md';}
	.st3{font-size:4.9995px;}
	.st4{fill:url(#SVGID_1_);}
	.st5{fill:url(#SVGID_00000153674305041258144010000000888350477653623728_);}
	.st6{fill:url(#SVGID_00000011014485854159236280000012120815212841165976_);}
	.st7{fill:url(#SVGID_00000101824370978908897790000014677141012820698756_);}
	.st8{fill:url(#SVGID_00000003099696717035345930000000526347665475902908_);}
	.st9{fill:url(#SVGID_00000132766320330446704260000018091767603289947825_);}
	.st10{fill:url(#SVGID_00000131358781479939410890000010655192833970964358_);}
	.st11{fill:url(#SVGID_00000083787221848661325850000002807549526170379415_);}
	.st12{fill:url(#SVGID_00000025406955275020620630000012718944906649262014_);}
	.st13{fill:url(#SVGID_00000039827037300709610550000017462903450119764408_);}
	.st14{fill:url(#SVGID_00000181083794425720256090000002363105964914903208_);}
	.st15{fill:url(#SVGID_00000126324142223796581770000013904779420748634796_);}
	.st16{fill:url(#SVGID_00000075148444072612700250000003401658311852783803_);}
	.st17{fill:#E8E5C6;}
	.st18{display:none;}
	.st19{display:inline;}
	.st20{fill:none;stroke:#000000;stroke-miterlimit:10;}
</style>
<g id="Layer_1">
	<rect x="0" class="st0" width="216" height="144"/>
	<g>
		<circle class="st1" cx="174.7" cy="102.2" r="19.2"/>
		<circle class="st1" cx="110.2" cy="85.1" r="16.1"/>
		<circle class="st1" cx="153.1" cy="64.9" r="4.9"/>
		<circle class="st1" cx="178" cy="37.9" r="15.9"/>
		<circle class="st1" cx="140.7" cy="38.5" r="9.3"/>
		<g>
			<g>
				<path class="st1" d="M206.5,134.5h-125V9.5h125V134.5z M93.8,122.2h100.4V21.8H93.8V122.2z"/>
			</g>
		</g>
		
			<rect x="104.9" y="78.4" transform="matrix(0.7792 -0.6268 0.6268 0.7792 -22.3324 111.8563)" class="st1" width="85.4" height="18.4"/>
		
			<rect x="120.7" y="48" transform="matrix(0.9992 3.943685e-02 -3.943685e-02 0.9992 2.2369 -5.6112)" class="st1" width="45.3" height="11.8"/>
		
			<rect x="84.4" y="40.8" transform="matrix(0.4178 0.9085 -0.9085 0.4178 104.5438 -71.6883)" class="st1" width="47.6" height="9.8"/>
	</g>
	<g>
		<g>
			<g>
				<g>
					<g>
						<path class="st1" d="M17.2,19.3c0-1.4,0.1-2,0.5-2.8c0.6-1.1,1.9-1.8,3.4-1.8c1.5,0,2.7,0.7,3.2,1.8c0.3,0.5,0.4,1.4,0.4,2.7
							v12.7c0,3-1.3,4.6-3.7,4.6c-1.6,0-3.2-0.9-3.5-2.2c-0.2-0.6-0.3-1.3-0.3-2.5V19.3z M19.4,32.3c0,1.5,0.4,2.2,1.5,2.2
							c1,0,1.4-0.7,1.4-2.4V19.1c0-1.8-0.3-2.3-1.4-2.3c-1.2,0-1.5,0.5-1.5,2.7V32.3z"/>
					</g>
				</g>
				<g>
					<g>
						<path class="st1" d="M28.4,22c0,0.8,0.2,1.2,1.1,1.7l1.5,0.9c1.3,0.8,1.6,2.4,1.6,3.9v4.3c0,2.5-1,3.7-3.2,3.7
							c-2.1,0-3.1-1.2-3.1-3.6v-3.7h2.1v3.7c0,1.2,0.2,1.6,1,1.6c0.9,0,1-0.3,1-1.7v-3.7c0-1.2-0.1-2.6-1-3.1l-1.4-0.8
							c-1.5-1-1.9-1.6-1.8-3.2v-3.2c0-1.5,0.1-2.2,0.5-2.7c0.6-0.9,1.6-1.3,2.8-1.3c2.1,0,3.2,1.2,3.2,3.5V22h-2.2v-3.5
							c0-1.2-0.3-1.7-1-1.7c-0.4,0-0.8,0.1-0.9,0.4c-0.2,0.3-0.3,0.7-0.3,1.1L28.4,22z"/>
					</g>
				</g>
				<g>
					<g>
						<path class="st1" d="M44.6,45c0,0.8,0.2,1.1,1.1,1.6l1.5,0.8c1.3,0.7,1.6,2.3,1.6,3.7v4.1c0,2.4-1,3.5-3.2,3.5
							c-2.1,0-3.1-1.1-3.1-3.5v-3.5h2.1v3.6c0,1.2,0.2,1.5,1,1.5c0.9,0,1-0.3,1-1.6v-3.5c0-1.2-0.1-2.5-1-2.9l-1.4-0.7
							c-1.5-1-1.9-1.5-1.8-3v-1.9c0-1.4,0.1-2.1,0.5-2.6c0.6-0.8,1.6-1.3,2.8-1.3c2.1,0,3.2,1.1,3.2,3.3v2.2h-2.2v-2.2
							c0-1.2-0.3-1.6-1-1.6c-0.4,0-0.8,0.1-0.9,0.4c-0.2,0.3-0.3,0.7-0.3,1L44.6,45z"/>
					</g>
				</g>
				<g>
					<g>
						<path class="st1" d="M33.9,18.7c0-1.4,0.1-2.1,0.5-2.6c0.6-0.8,1.6-1.2,2.7-1.2c1.3,0,2.3,0.6,2.7,1.5c0.2,0.4,0.3,1,0.3,2.1
							v11.3c0,1.4,0,1.6,0.3,2.1h-1.9c-0.1-0.2-0.2-0.3-0.4-1C37.6,31.6,36.9,32,36,32c-0.8,0-1.5-0.5-1.8-1.2
							c-0.2-0.5-0.3-1.3-0.3-2.7v-1.5c0-2.5,0.9-3.7,2.6-3.7c0.6,0,1.2,0.2,1.6,0.6v-5.1c0-1.2-0.2-1.6-1-1.6
							c-0.7,0-1.2,0.6-1.1,1.4c0,0.1,0,0.3,0,0.3v3.3h-2.1V18.7z M36,28.7c0,1,0.2,1.4,0.9,1.4c0.7,0,1.2-0.5,1.2-1.1v-3.1
							c0-0.7-0.4-1.2-1.1-1.2c-0.7,0-0.9,0.4-0.9,1.6V28.7z"/>
					</g>
				</g>
				<g>
					<g>
						<path class="st1" d="M44.8,15.2l0,1c0.6-0.8,2-1.1,2.8-1.1c0.8,0,1.4,0.3,1.8,1.2c0.7-0.8,2.2-1.2,3.1-1.2
							c1.1,0,2,0.6,2.2,1.6c0,0.4,0.1,0.8,0.1,1.5v19.8h-2.2V18.7c0-1.6-0.1-1.8-1-1.8c-0.5,0-1.6,0.3-1.8,0.7v20.5h-2.3V18.2
							c0-1-0.2-1.4-0.9-1.4c-0.5,0-1.5,0.3-1.9,0.9v20.4h-2.3V15.2H44.8z"/>
					</g>
				</g>
				<g>
					<g>
						<path class="st1" d="M57.1,18.6c0-1.4,0.1-2.1,0.5-2.6c0.6-0.8,1.6-1.2,2.7-1.2c1.3,0,2.3,0.6,2.7,1.5c0.2,0.4,0.3,1,0.3,2.1
							V34c0,1.4,0,1.6,0.3,2.1h-1.9c-0.1-0.2-0.2-0.3-0.4-1c-0.6,0.8-1.3,1.2-2.2,1.2c-0.8,0-1.5-0.5-1.8-1.2
							c-0.2-0.5-0.3-1.3-0.3-2.7v-5.8c0-2.5,0.9-3.7,2.6-3.7c0.6,0,1.2,0.2,1.6,0.6v-5.1c0-1.2-0.2-1.6-1-1.6
							c-0.7,0-1.2,0.6-1.1,1.4c0,0.1,0,0.3,0,0.3v3.3h-2.1V18.6z M59.2,32.9c0,1,0.2,1.4,0.9,1.4c0.7,0,1.2-0.5,1.2-1.1v-7.4
							c0-0.7-0.4-1.2-1.1-1.2c-0.7,0-0.9,0.4-0.9,1.6V32.9z"/>
					</g>
				</g>
				<g>
					<g>
						<path class="st1" d="M22.2,50.3v8.3H20v-8.3l-2.8-11.7h2.3l1.7,9l1.7-9H25L22.2,50.3z"/>
					</g>
				</g>
				<g>
					<g>
						<path class="st1" d="M32.5,54.3c0,3.2-1,4.5-3.5,4.5c-2.3,0-3.3-1.2-3.3-3.9V42.2c0-2.7,0.9-3.8,3.4-3.8
							c2.4,0,3.4,1.1,3.4,3.6V54.3z M27.8,55.2c0,1.2,0.4,1.7,1.2,1.7c0.9,0,1.2-0.5,1.2-1.8V42.2c0-1.5-0.2-1.9-1.2-1.9
							c-0.9,0-1.2,0.5-1.2,1.8V55.2z"/>
					</g>
				</g>
				<g>
					<g>
						<path class="st1" d="M38.5,58.6v-0.9c-0.7,0.7-1.3,0.9-2,0.9c-1.4,0-2.2-1-2.2-3.1V33.2h2.1v21.6c0,1.5,0.2,2,0.9,2
							c0.5,0,0.9-0.3,1.2-0.8V33.2h2.1v25.4H38.5z"/>
					</g>
				</g>
				<g>
					<g>
						<path class="st1" d="M52.4,54.9c0,1.5,0.2,1.9,1.1,1.9c0.8,0,1-0.3,1-1.8v-4.1h2.2v4.4c0,2.3-1,3.5-3.2,3.5
							c-2.2,0-3.3-1.2-3.3-3.6v-12c0-2.5,1.1-3.7,3.4-3.7c1.3,0,2.1,0.4,2.7,1.1c0.1,0.2,0.5,1.5,0.5,1.8V49h-4.3V54.9z M54.5,46.9
							l0-3.8c0-1.3-0.2-1.5-1-1.5c-0.8,0-1.1,0.5-1.1,1.9l0,3.5H54.5z"/>
					</g>
				</g>
				<g>
					<g>
						<path class="st1" d="M63.7,39.3h-1.8c-0.6,0-0.7,0.2-0.7,1.1V47h1.5V49h-1.5v9.8h-2.3v-9.9h-1.4V47h1.4l0-6
							c0-2.5-0.1-3.7,2.5-3.7h2.2V39.3z"/>
					</g>
				</g>
			</g>
		</g>
		<g>
			<text transform="matrix(1 0 0 1 18.8154 65.9126)" class="st1 st2 st3">Graphic designer</text>
		</g>
	</g>
	<g>
		<path class="st1" d="M14.5,131.3l-0.5-1.6h0l-0.5,1.6h-0.2l-0.9-2.4h0.5l0.5,1.5h0l0.5-1.5h0.3l0.5,1.5h0l0.5-1.5h0.5l-0.9,2.4
			H14.5z"/>
		<path class="st1" d="M18,131.3l-0.5-1.6h0l-0.5,1.6h-0.2l-0.9-2.4h0.5l0.5,1.5h0l0.5-1.5h0.3l0.5,1.5h0l0.5-1.5h0.5l-0.9,2.4H18z"
			/>
		<path class="st1" d="M21.5,131.3l-0.5-1.6h0l-0.5,1.6h-0.2l-0.9-2.4h0.5l0.5,1.5h0l0.5-1.5h0.3l0.5,1.5h0l0.5-1.5h0.5l-0.9,2.4
			H21.5z"/>
		<path class="st1" d="M22.7,131.3v-0.5h0.4v0.5H22.7z"/>
		<path class="st1" d="M24.8,129.6c0-0.2-0.1-0.3-0.3-0.3c-0.2,0-0.3,0.1-0.3,0.3c0,0.2,0.2,0.3,0.4,0.3c0.3,0.1,0.6,0.3,0.6,0.7
			c0,0.5-0.3,0.8-0.8,0.8c-0.4,0-0.8-0.3-0.8-0.8h0.4c0,0.3,0.2,0.4,0.4,0.4c0.2,0,0.3-0.1,0.3-0.3c0-0.2-0.1-0.3-0.4-0.4
			c-0.6-0.2-0.7-0.4-0.7-0.7c0-0.4,0.4-0.7,0.7-0.7c0.4,0,0.7,0.3,0.7,0.7H24.8z"/>
		<path class="st1" d="M27.7,131.3V131h0c-0.2,0.3-0.5,0.4-0.8,0.4c-0.7,0-1.3-0.5-1.3-1.2c0-0.8,0.5-1.3,1.2-1.3
			c0.3,0,0.6,0.1,0.8,0.4h0V129h0.4v2.4H27.7z M27.7,130.2c0-0.5-0.3-0.8-0.8-0.8c-0.4,0-0.8,0.4-0.8,0.8c0,0.4,0.4,0.8,0.8,0.8
			C27.3,131,27.7,130.6,27.7,130.2z"/>
		<path class="st1" d="M31.9,131.3V130c0-0.4-0.2-0.7-0.6-0.7c-0.4,0-0.6,0.2-0.6,0.7v1.3h-0.4V130c0-0.5-0.2-0.6-0.5-0.6
			c-0.4,0-0.6,0.2-0.6,0.7v1.3h-0.4V129h0.4v0.3h0c0.2-0.2,0.4-0.3,0.7-0.3s0.6,0.1,0.7,0.4c0.2-0.3,0.4-0.4,0.8-0.4
			c0.6,0,1,0.4,1,1v1.4H31.9z"/>
		<path class="st1" d="M33,132.1V129h0.4v0.4h0c0.2-0.3,0.5-0.4,0.8-0.4c0.7,0,1.2,0.5,1.2,1.3c0,0.7-0.5,1.2-1.2,1.2
			c-0.4,0-0.7-0.1-0.8-0.4h0v1.1H33z M35,130.2c0-0.4-0.3-0.8-0.8-0.8c-0.4,0-0.8,0.4-0.8,0.8c0,0.5,0.3,0.8,0.8,0.8
			C34.7,131,35,130.6,35,130.2z"/>
		<path class="st1" d="M37.1,131.4c-0.7,0-1.3-0.6-1.3-1.2c0-0.7,0.6-1.3,1.3-1.3c0.7,0,1.3,0.5,1.3,1.3
			C38.4,130.8,37.9,131.4,37.1,131.4z M37.1,129.3c-0.4,0-0.8,0.4-0.8,0.8c0,0.4,0.4,0.8,0.8,0.8c0.5,0,0.8-0.4,0.8-0.8
			C38,129.7,37.6,129.3,37.1,129.3z"/>
		<path class="st1" d="M38.9,131.3v-3.2h0.4v3.2H38.9z"/>
		<path class="st1" d="M42,131.3V131h0c-0.2,0.3-0.5,0.4-0.8,0.4c-0.7,0-1.3-0.5-1.3-1.2c0-0.8,0.5-1.3,1.2-1.3
			c0.3,0,0.6,0.1,0.8,0.4h0V129h0.4v2.4H42z M42,130.2c0-0.5-0.3-0.8-0.8-0.8c-0.4,0-0.8,0.4-0.8,0.8c0,0.4,0.4,0.8,0.8,0.8
			C41.6,131,42,130.6,42,130.2z"/>
		<path class="st1" d="M43,131.3V129h0.4v0.2h0c0.1-0.2,0.3-0.3,0.6-0.3v0.5c-0.4,0-0.6,0.2-0.6,0.6v1.3H43z"/>
		<path class="st1" d="M44.5,131.3v-3.2h1.1c1,0,1.5,0.8,1.5,1.6c0,1-0.6,1.6-1.6,1.6H44.5z M45.5,130.9c0.7,0,1.2-0.4,1.2-1.1
			c0-0.7-0.5-1.2-1.1-1.2h-0.6v2.3H45.5z"/>
		<path class="st1" d="M48,130.4c0.1,0.4,0.4,0.6,0.8,0.6c0.3,0,0.5-0.1,0.7-0.4h0.4c-0.2,0.5-0.6,0.8-1.1,0.8
			c-0.7,0-1.2-0.6-1.2-1.2c0-0.7,0.6-1.3,1.2-1.3c0.7,0,1.2,0.5,1.2,1.2c0,0.1,0,0.1,0,0.2H48z M49.5,130c0-0.4-0.4-0.7-0.8-0.7
			c-0.4,0-0.7,0.3-0.8,0.7H49.5z"/>
		<path class="st1" d="M51.4,129.6c0-0.2-0.1-0.3-0.3-0.3c-0.2,0-0.3,0.1-0.3,0.3c0,0.2,0.2,0.3,0.4,0.3c0.3,0.1,0.6,0.3,0.6,0.7
			c0,0.5-0.3,0.8-0.8,0.8c-0.4,0-0.8-0.3-0.8-0.8h0.4c0,0.3,0.2,0.4,0.4,0.4c0.2,0,0.3-0.1,0.3-0.3c0-0.2-0.1-0.3-0.4-0.4
			c-0.6-0.2-0.7-0.4-0.7-0.7c0-0.4,0.4-0.7,0.7-0.7c0.4,0,0.7,0.3,0.7,0.7H51.4z"/>
		<path class="st1" d="M52.4,128.7v-0.5h0.4v0.5H52.4z M52.4,131.3V129h0.4v2.4H52.4z"/>
		<path class="st1" d="M55.4,131c-0.2,0.2-0.5,0.4-0.8,0.4c-0.7,0-1.3-0.6-1.3-1.2c0-0.7,0.6-1.3,1.3-1.3c0.3,0,0.6,0.1,0.8,0.3V129
			h0.4v2.1c0,0.8-0.5,1.2-1.3,1.2c-0.5,0-1-0.3-1.2-0.7h0.5c0.2,0.2,0.4,0.3,0.7,0.3C55.1,131.9,55.4,131.6,55.4,131L55.4,131z
			 M55.4,130.2c0-0.6-0.4-0.8-0.8-0.8c-0.4,0-0.8,0.4-0.8,0.8c0,0.5,0.4,0.8,0.8,0.8C55.1,131,55.4,130.5,55.4,130.2z"/>
		<path class="st1" d="M58.1,131.3v-1.3c0-0.5-0.2-0.7-0.6-0.7c-0.4,0-0.6,0.3-0.6,0.7v1.3h-0.4V129h0.4v0.3h0
			c0.2-0.2,0.4-0.3,0.7-0.3c0.6,0,1,0.4,1,1v1.4H58.1z"/>
		<path class="st1" d="M59.3,131.3v-0.5h0.4v0.5H59.3z"/>
		<path class="st1" d="M62.6,130.6c-0.2,0.5-0.6,0.8-1.2,0.8c-0.7,0-1.2-0.5-1.2-1.2c0-0.7,0.5-1.3,1.2-1.3c0.5,0,1,0.3,1.2,0.8
			h-0.5c-0.1-0.3-0.3-0.4-0.7-0.4c-0.5,0-0.8,0.4-0.8,0.8c0,0.5,0.3,0.8,0.8,0.8c0.3,0,0.5-0.2,0.7-0.4H62.6z"/>
		<path class="st1" d="M64.3,131.4c-0.7,0-1.3-0.6-1.3-1.2c0-0.7,0.6-1.3,1.3-1.3c0.7,0,1.3,0.5,1.3,1.3
			C65.5,130.8,65,131.4,64.3,131.4z M64.3,129.3c-0.4,0-0.8,0.4-0.8,0.8c0,0.4,0.4,0.8,0.8,0.8c0.5,0,0.8-0.4,0.8-0.8
			C65.1,129.7,64.7,129.3,64.3,129.3z"/>
		<path class="st1" d="M69.2,131.3V130c0-0.4-0.2-0.7-0.6-0.7c-0.4,0-0.6,0.2-0.6,0.7v1.3h-0.4V130c0-0.5-0.2-0.6-0.5-0.6
			c-0.4,0-0.6,0.2-0.6,0.7v1.3h-0.4V129h0.4v0.3h0c0.2-0.2,0.4-0.3,0.7-0.3s0.6,0.1,0.7,0.4c0.2-0.3,0.4-0.4,0.8-0.4
			c0.6,0,1,0.4,1,1v1.4H69.2z"/>
	</g>
	<g>
		<path class="st1" d="M28.3,107.1c-0.3,0.1-0.6,0.2-0.9,0.2c-0.9,0-1.4-0.6-1.4-1.3c0-0.8,0.6-1.4,1.4-1.4c0.7,0,1.2,0.5,1.2,1.2
			c0,0.5-0.3,0.9-0.6,0.9c-0.2,0-0.3-0.1-0.3-0.3h0c-0.1,0.2-0.3,0.3-0.5,0.3c-0.3,0-0.5-0.3-0.5-0.6c0-0.4,0.3-0.8,0.7-0.8
			c0.2,0,0.4,0.1,0.4,0.3h0l0-0.3H28l-0.2,0.9c0,0,0,0.1,0,0.1c0,0.1,0,0.1,0.1,0.1c0.2,0,0.4-0.4,0.4-0.7c0-0.6-0.4-1-1-1
			c-0.7,0-1.2,0.5-1.2,1.2c0,0.7,0.5,1.1,1.2,1.1c0.3,0,0.6-0.1,0.8-0.2L28.3,107.1z M27.7,105.9c0-0.2-0.1-0.4-0.4-0.4
			c-0.3,0-0.5,0.3-0.5,0.6c0,0.3,0.1,0.4,0.4,0.4C27.5,106.5,27.7,106.2,27.7,105.9z"/>
		<path class="st1" d="M29.8,105.8c0-0.2-0.1-0.3-0.3-0.3c-0.2,0-0.3,0.1-0.3,0.3c0,0.1,0.1,0.2,0.3,0.3c0.5,0.2,0.6,0.3,0.6,0.6
			c0,0.4-0.2,0.6-0.6,0.6c-0.3,0-0.6-0.2-0.6-0.6v0h0.2c0,0.3,0.1,0.4,0.3,0.4c0.2,0,0.4-0.1,0.4-0.3c0-0.2-0.1-0.3-0.3-0.4
			c-0.3-0.1-0.6-0.2-0.6-0.5c0-0.3,0.2-0.5,0.5-0.5c0.3,0,0.5,0.2,0.5,0.5H29.8z"/>
		<path class="st1" d="M32.2,107.3v-0.3h0c-0.2,0.2-0.4,0.4-0.8,0.4c-0.6,0-1-0.4-1-1s0.5-1,1-1c0.3,0,0.6,0.1,0.8,0.4h0v-0.3h0.2
			v1.9H32.2z M32.3,106.3c0-0.4-0.3-0.8-0.8-0.8c-0.4,0-0.8,0.3-0.8,0.8c0,0.4,0.3,0.8,0.8,0.8C31.9,107.1,32.3,106.8,32.3,106.3z"
			/>
		<path class="st1" d="M35.6,107.3v-1.1c0-0.4-0.2-0.6-0.5-0.6c-0.3,0-0.5,0.3-0.5,0.6v1.1h-0.2v-1.1c0-0.4-0.2-0.6-0.5-0.6
			c-0.3,0-0.5,0.2-0.5,0.6v1.1H33v-1.9h0.2v0.2c0.1-0.2,0.3-0.3,0.5-0.3c0.3,0,0.5,0.1,0.6,0.4c0.2-0.2,0.4-0.4,0.6-0.4
			c0.5,0,0.8,0.4,0.8,0.8v1.2H35.6z"/>
		<path class="st1" d="M36.3,108v-2.6h0.2v0.3h0c0.2-0.3,0.4-0.4,0.8-0.4c0.6,0,1,0.4,1,1c0,0.6-0.4,1-1,1c-0.3,0-0.6-0.1-0.8-0.4h0
			v1H36.3z M37.4,105.5c-0.4,0-0.8,0.4-0.8,0.8c0,0.4,0.3,0.8,0.8,0.8c0.5,0,0.8-0.3,0.8-0.8C38.1,105.9,37.8,105.5,37.4,105.5z"/>
		<path class="st1" d="M38.7,106.3c0-0.6,0.5-1,1-1c0.6,0,1,0.5,1,1c0,0.6-0.5,1-1,1C39.2,107.3,38.7,106.9,38.7,106.3z M40.5,106.3
			c0-0.4-0.3-0.8-0.8-0.8c-0.4,0-0.8,0.4-0.8,0.8c0,0.4,0.3,0.8,0.8,0.8C40.2,107.1,40.5,106.7,40.5,106.3z"/>
		<path class="st1" d="M41.2,107.3v-2.6h0.2v2.6H41.2z"/>
		<path class="st1" d="M43.6,107.3v-0.3h0c-0.2,0.2-0.4,0.4-0.8,0.4c-0.6,0-1-0.4-1-1s0.5-1,1-1c0.3,0,0.6,0.1,0.8,0.4h0v-0.3h0.2
			v1.9H43.6z M43.7,106.3c0-0.4-0.3-0.8-0.8-0.8c-0.4,0-0.8,0.3-0.8,0.8c0,0.4,0.3,0.8,0.8,0.8C43.3,107.1,43.7,106.8,43.7,106.3z"
			/>
		<path class="st1" d="M44.4,107.3v-1.9h0.2v0.3h0c0.1-0.2,0.2-0.3,0.5-0.3v0.3h0c-0.4,0-0.5,0.3-0.5,0.6v1.1H44.4z"/>
		<path class="st1" d="M45.4,107.3v-0.4h0.3v0.4H45.4z"/>
		<path class="st1" d="M46.3,107.3v-2.6h0.8c0.3,0,0.6,0.1,0.9,0.2c0.4,0.2,0.6,0.6,0.6,1.1c0,0.3-0.1,0.6-0.4,0.9
			c-0.3,0.3-0.6,0.4-1.1,0.4H46.3z M47.1,107c0.4,0,0.7-0.1,0.9-0.3c0.2-0.2,0.3-0.5,0.3-0.8c0-0.3-0.1-0.6-0.4-0.8
			c-0.2-0.1-0.5-0.2-0.8-0.2h-0.5v2.1H47.1z"/>
		<path class="st1" d="M49.1,106.4c0,0.4,0.4,0.7,0.7,0.7c0.3,0,0.6-0.2,0.7-0.5h0.3c-0.1,0.4-0.5,0.7-0.9,0.7c-0.5,0-1-0.4-1-1
			c0-0.6,0.5-1,1-1c0.6,0,1,0.5,1,1c0,0,0,0,0,0.1H49.1z M50.6,106.2c-0.1-0.4-0.4-0.7-0.8-0.7c-0.4,0-0.7,0.3-0.7,0.7H50.6z"/>
		<path class="st1" d="M52.1,105.8c0-0.2-0.1-0.3-0.3-0.3c-0.2,0-0.3,0.1-0.3,0.3c0,0.1,0.1,0.2,0.3,0.3c0.5,0.2,0.6,0.3,0.6,0.6
			c0,0.4-0.2,0.6-0.6,0.6c-0.3,0-0.6-0.2-0.6-0.6v0h0.2c0,0.3,0.1,0.4,0.3,0.4c0.2,0,0.4-0.1,0.4-0.3c0-0.2-0.1-0.3-0.3-0.4
			c-0.3-0.1-0.6-0.2-0.6-0.5c0-0.3,0.2-0.5,0.5-0.5c0.3,0,0.5,0.2,0.5,0.5H52.1z"/>
		<path class="st1" d="M52.7,105.1v-0.4H53v0.4H52.7z M52.7,107.3v-1.9H53v1.9H52.7z"/>
		<path class="st1" d="M55.2,106.9L55.2,106.9c-0.1,0.3-0.4,0.4-0.8,0.4c-0.5,0-1-0.4-1-1c0-0.6,0.5-1,1-1c0.3,0,0.6,0.1,0.7,0.4h0
			v-0.3h0.2v1.7c0,0.7-0.5,1-0.9,1c-0.5,0-0.9-0.3-1-0.7h0.3c0.1,0.3,0.4,0.5,0.7,0.5c0.4,0,0.7-0.3,0.7-0.7V106.9z M55.2,106.3
			c0-0.4-0.3-0.8-0.8-0.8c-0.4,0-0.8,0.4-0.8,0.8c0,0.4,0.3,0.8,0.8,0.8C54.8,107.1,55.2,106.7,55.2,106.3z"/>
		<path class="st1" d="M57.4,107.3v-1.1c0-0.4-0.3-0.7-0.6-0.7c-0.4,0-0.6,0.3-0.6,0.7v1.1h-0.2v-1.9h0.2v0.2h0
			c0.1-0.2,0.3-0.3,0.6-0.3c0.5,0,0.8,0.4,0.8,0.9v1.1H57.4z"/>
	</g>
	<g>
		<path class="st1" d="M17.5,112.8c0-0.6,0.5-1,1-1c0.6,0,1,0.5,1,1c0,0.6-0.5,1-1,1C18,113.8,17.5,113.3,17.5,112.8z M19.3,112.7
			c0-0.4-0.3-0.8-0.8-0.8c-0.4,0-0.8,0.4-0.8,0.8c0,0.4,0.3,0.8,0.8,0.8C19,113.5,19.3,113.2,19.3,112.7z"/>
		<path class="st1" d="M20.7,112.3c0-0.2-0.1-0.3-0.3-0.3c-0.2,0-0.3,0.1-0.3,0.3c0,0.1,0.1,0.2,0.3,0.3c0.5,0.2,0.6,0.3,0.6,0.6
			c0,0.4-0.2,0.6-0.6,0.6c-0.3,0-0.6-0.2-0.6-0.6v0h0.2c0,0.3,0.1,0.4,0.3,0.4c0.2,0,0.4-0.1,0.4-0.3c0-0.2-0.1-0.3-0.3-0.4
			c-0.3-0.1-0.6-0.2-0.6-0.5c0-0.3,0.2-0.5,0.5-0.5c0.3,0,0.5,0.2,0.5,0.5H20.7z"/>
		<path class="st1" d="M23.1,113.7v-0.3h0c-0.2,0.2-0.4,0.4-0.8,0.4c-0.6,0-1-0.4-1-1s0.5-1,1-1c0.3,0,0.6,0.1,0.8,0.4h0v-0.3h0.2
			v1.9H23.1z M23.1,112.7c0-0.4-0.3-0.8-0.8-0.8c-0.4,0-0.8,0.3-0.8,0.8c0,0.4,0.3,0.8,0.8,0.8C22.8,113.5,23.1,113.2,23.1,112.7z"
			/>
		<path class="st1" d="M26.5,113.7v-1.1c0-0.4-0.2-0.6-0.5-0.6c-0.3,0-0.5,0.3-0.5,0.6v1.1h-0.2v-1.1c0-0.4-0.2-0.6-0.5-0.6
			c-0.3,0-0.5,0.2-0.5,0.6v1.1h-0.2v-1.9h0.2v0.2c0.1-0.2,0.3-0.3,0.5-0.3c0.3,0,0.5,0.1,0.6,0.4c0.2-0.2,0.4-0.4,0.6-0.4
			c0.5,0,0.8,0.4,0.8,0.8v1.2H26.5z"/>
		<path class="st1" d="M29,113.7v-0.3h0c-0.2,0.2-0.4,0.4-0.8,0.4c-0.6,0-1-0.4-1-1s0.5-1,1-1c0.3,0,0.6,0.1,0.8,0.4h0v-0.3h0.2v1.9
			H29z M29,112.7c0-0.4-0.3-0.8-0.8-0.8c-0.4,0-0.8,0.3-0.8,0.8c0,0.4,0.3,0.8,0.8,0.8C28.6,113.5,29,113.2,29,112.7z"/>
		<path class="st1" d="M29.9,114.4l0.3-0.7l-0.8-1.9h0.3l0.6,1.5l0.7-1.5h0.3l-1.1,2.6H29.9z"/>
		<path class="st1" d="M31.6,112.8c0-0.6,0.5-1,1-1c0.6,0,1,0.5,1,1c0,0.6-0.5,1-1,1C32,113.8,31.6,113.3,31.6,112.8z M33.3,112.7
			c0-0.4-0.3-0.8-0.8-0.8c-0.4,0-0.8,0.4-0.8,0.8c0,0.4,0.3,0.8,0.8,0.8C33,113.5,33.3,113.2,33.3,112.7z"/>
		<path class="st1" d="M35.5,113.7v-0.3h0c-0.1,0.2-0.3,0.3-0.6,0.3c-0.4,0-0.8-0.2-0.8-0.9v-1.1h0.2v1.1c0,0.4,0.2,0.7,0.6,0.7
			c0.3,0,0.6-0.2,0.6-0.7v-1.1h0.2v1.9H35.5z"/>
		<path class="st1" d="M37,112.3c0-0.2-0.1-0.3-0.3-0.3c-0.2,0-0.3,0.1-0.3,0.3c0,0.1,0.1,0.2,0.3,0.3c0.5,0.2,0.6,0.3,0.6,0.6
			c0,0.4-0.2,0.6-0.6,0.6c-0.3,0-0.6-0.2-0.6-0.6v0h0.2c0,0.3,0.1,0.4,0.3,0.4c0.2,0,0.4-0.1,0.4-0.3c0-0.2-0.1-0.3-0.3-0.4
			c-0.3-0.1-0.6-0.2-0.6-0.5c0-0.3,0.2-0.5,0.5-0.5c0.3,0,0.5,0.2,0.5,0.5H37z"/>
		<path class="st1" d="M37.8,112.8c0,0.4,0.4,0.7,0.7,0.7c0.3,0,0.6-0.2,0.7-0.5h0.3c-0.1,0.4-0.5,0.7-0.9,0.7c-0.5,0-1-0.4-1-1
			c0-0.6,0.5-1,1-1c0.6,0,1,0.5,1,1c0,0,0,0,0,0.1H37.8z M39.3,112.6c-0.1-0.4-0.4-0.7-0.8-0.7c-0.4,0-0.7,0.3-0.7,0.7H39.3z"/>
		<path class="st1" d="M40.1,113.7V112h-0.3v-0.2h0.3c0-0.5,0.2-0.7,0.7-0.7v0.2h0c-0.3,0-0.5,0.1-0.5,0.5v0h0.5v0.2h-0.5v1.7H40.1z
			"/>
		<path class="st1" d="M41.3,113.7l1.1-2.4h-1.2v-0.2h1.5v0.2l-1.1,2.4H41.3z"/>
		<path class="st1" d="M43.6,111.3l-0.1,0.7c0.1-0.1,0.3-0.1,0.4-0.1c0.5,0,0.9,0.4,0.9,0.9c0,0.5-0.4,0.9-0.9,0.9
			c-0.4,0-0.8-0.2-0.9-0.9h0.3c0,0.4,0.3,0.6,0.6,0.6c0.4,0,0.6-0.3,0.6-0.7c0-0.4-0.3-0.7-0.6-0.7c-0.2,0-0.4,0.1-0.5,0.3l-0.2-0.1
			l0.2-1.3h1.2v0.2H43.6z"/>
		<path class="st1" d="M45.1,113.7v-0.2l1.1-1c0.2-0.2,0.3-0.4,0.3-0.6c0-0.3-0.3-0.6-0.6-0.6c-0.3,0-0.6,0.2-0.6,0.7h-0.3
			c0-0.6,0.4-0.9,0.8-0.9c0.5,0,0.8,0.4,0.8,0.8c0,0.4-0.2,0.6-0.5,0.8l-0.8,0.8h1.3v0.2H45.1z"/>
		<path class="st1" d="M49.5,113.6c-0.3,0.1-0.6,0.2-0.9,0.2c-0.9,0-1.4-0.6-1.4-1.3c0-0.8,0.6-1.4,1.4-1.4c0.7,0,1.2,0.5,1.2,1.2
			c0,0.5-0.3,0.9-0.6,0.9c-0.2,0-0.3-0.1-0.3-0.3h0c-0.1,0.2-0.3,0.3-0.5,0.3c-0.3,0-0.5-0.3-0.5-0.6c0-0.4,0.3-0.8,0.7-0.8
			c0.2,0,0.4,0.1,0.4,0.3h0l0-0.3h0.2l-0.2,0.9c0,0,0,0.1,0,0.1c0,0.1,0,0.1,0.1,0.1c0.2,0,0.4-0.4,0.4-0.7c0-0.6-0.4-1-1-1
			c-0.7,0-1.2,0.5-1.2,1.2c0,0.7,0.5,1.1,1.2,1.1c0.3,0,0.6-0.1,0.8-0.2L49.5,113.6z M48.9,112.3c0-0.2-0.1-0.4-0.4-0.4
			c-0.3,0-0.5,0.3-0.5,0.6c0,0.3,0.1,0.4,0.4,0.4C48.7,113,48.9,112.7,48.9,112.3z"/>
		<path class="st1" d="M51.9,113.4L51.9,113.4c-0.1,0.3-0.4,0.4-0.8,0.4c-0.5,0-1-0.4-1-1c0-0.6,0.5-1,1-1c0.3,0,0.6,0.1,0.7,0.4h0
			v-0.3h0.2v1.7c0,0.7-0.5,1-0.9,1c-0.5,0-0.9-0.3-1-0.7h0.3c0.1,0.3,0.4,0.5,0.7,0.5c0.4,0,0.7-0.3,0.7-0.7V113.4z M52,112.7
			c0-0.4-0.3-0.8-0.8-0.8c-0.4,0-0.8,0.4-0.8,0.8c0,0.4,0.3,0.8,0.8,0.8C51.6,113.5,52,113.2,52,112.7z"/>
		<path class="st1" d="M55.3,113.7v-1.1c0-0.4-0.2-0.6-0.5-0.6c-0.3,0-0.5,0.3-0.5,0.6v1.1H54v-1.1c0-0.4-0.2-0.6-0.5-0.6
			c-0.3,0-0.5,0.2-0.5,0.6v1.1h-0.2v-1.9H53v0.2c0.1-0.2,0.3-0.3,0.5-0.3c0.3,0,0.5,0.1,0.6,0.4c0.2-0.2,0.4-0.4,0.6-0.4
			c0.5,0,0.8,0.4,0.8,0.8v1.2H55.3z"/>
		<path class="st1" d="M57.8,113.7v-0.3h0c-0.2,0.2-0.4,0.4-0.8,0.4c-0.6,0-1-0.4-1-1s0.5-1,1-1c0.3,0,0.6,0.1,0.8,0.4h0v-0.3H58
			v1.9H57.8z M57.8,112.7c0-0.4-0.3-0.8-0.8-0.8c-0.4,0-0.8,0.3-0.8,0.8c0,0.4,0.3,0.8,0.8,0.8C57.5,113.5,57.8,113.2,57.8,112.7z"
			/>
		<path class="st1" d="M58.5,111.5v-0.4h0.2v0.4H58.5z M58.5,113.7v-1.9h0.2v1.9H58.5z"/>
		<path class="st1" d="M59.3,113.7v-2.6h0.2v2.6H59.3z"/>
		<path class="st1" d="M60.2,113.7v-0.4h0.3v0.4H60.2z"/>
		<path class="st1" d="M63,113.1c-0.2,0.4-0.5,0.6-1,0.6c-0.6,0-1-0.4-1-1c0-0.5,0.5-1,1-1c0.4,0,0.8,0.2,1,0.6h-0.3
			c-0.1-0.3-0.4-0.4-0.7-0.4c-0.4,0-0.8,0.3-0.8,0.8c0,0.4,0.3,0.8,0.8,0.8c0.3,0,0.5-0.1,0.7-0.4H63z"/>
		<path class="st1" d="M63.3,112.8c0-0.6,0.5-1,1-1c0.6,0,1,0.5,1,1c0,0.6-0.5,1-1,1C63.8,113.8,63.3,113.3,63.3,112.8z M65.1,112.7
			c0-0.4-0.3-0.8-0.8-0.8c-0.4,0-0.8,0.4-0.8,0.8c0,0.4,0.3,0.8,0.8,0.8C64.8,113.5,65.1,113.2,65.1,112.7z"/>
		<path class="st1" d="M68.4,113.7v-1.1c0-0.4-0.2-0.6-0.5-0.6c-0.3,0-0.5,0.3-0.5,0.6v1.1h-0.2v-1.1c0-0.4-0.2-0.6-0.5-0.6
			c-0.3,0-0.5,0.2-0.5,0.6v1.1h-0.2v-1.9H66v0.2c0.1-0.2,0.3-0.3,0.5-0.3c0.3,0,0.5,0.1,0.6,0.4c0.2-0.2,0.4-0.4,0.6-0.4
			c0.5,0,0.8,0.4,0.8,0.8v1.2H68.4z"/>
	</g>
	<path class="st17" d="M21.9,104.4c0.6,0,0.6,0,0.9,0c0.6,0,0.9,0.3,0.9,0.9c0,0.2,0,0.3,0,0.9c0,0.6,0,0.6,0,0.9
		c0,0.6-0.3,0.9-0.9,0.9c-0.2,0-0.3,0-0.9,0c-0.6,0-0.6,0-0.9,0c-0.6,0-0.9-0.3-0.9-0.9c0-0.2,0-0.3,0-0.9c0-0.6,0-0.6,0-0.9
		c0-0.6,0.3-0.9,0.9-0.9C21.3,104.4,21.4,104.4,21.9,104.4z M21.9,104c-0.6,0-0.7,0-0.9,0c-0.8,0-1.2,0.5-1.3,1.3c0,0.2,0,0.3,0,0.9
		s0,0.7,0,0.9c0,0.8,0.5,1.2,1.3,1.3c0.2,0,0.3,0,0.9,0c0.6,0,0.7,0,0.9,0c0.8,0,1.2-0.5,1.3-1.3c0-0.2,0-0.3,0-0.9s0-0.7,0-0.9
		c0-0.8-0.5-1.2-1.3-1.3C22.6,104,22.5,104,21.9,104z M21.9,105.1c-0.6,0-1.1,0.5-1.1,1.1s0.5,1.1,1.1,1.1c0.6,0,1.1-0.5,1.1-1.1
		C23,105.6,22.5,105.1,21.9,105.1z M21.9,106.9c-0.4,0-0.7-0.3-0.7-0.7c0-0.4,0.3-0.7,0.7-0.7s0.7,0.3,0.7,0.7
		C22.7,106.6,22.3,106.9,21.9,106.9z M23.1,104.8c-0.1,0-0.3,0.1-0.3,0.3c0,0.1,0.1,0.3,0.3,0.3c0.1,0,0.3-0.1,0.3-0.3
		C23.4,104.9,23.2,104.8,23.1,104.8z"/>
	<path class="st1" d="M13.2,110.1c1.1,0,1.9,0.9,1.9,1.9c0,1.1-0.9,1.9-1.9,1.9s-1.9-0.9-1.9-1.9C11.3,111,12.1,110.1,13.2,110.1z
		 M13.2,109.8c-1.3,0-2.3,1-2.3,2.3c0,1.3,1,2.3,2.3,2.3s2.3-1,2.3-2.3C15.5,110.8,14.5,109.8,13.2,109.8z M13.2,112.2l-1.2-0.9h2.3
		L13.2,112.2z M13.2,112.4l-1.2-0.9v1.3h2.3v-1.3L13.2,112.4z"/>
</g>
<g id="Layer_2" class="st18">
	<g class="st19">
		<rect x="81.5" y="9.5" class="st20" width="125" height="125"/>
		<rect x="16.5" y="14.5" class="st20" width="47" height="52"/>
		<rect x="13.5" y="103.5" class="st20" width="56" height="6"/>
		<rect x="10.5" y="109.5" class="st20" width="59" height="6"/>
	</g>
</g>
</svg>
