<?xml version="1.0" encoding="UTF-8"?><svg id="Layer_2" xmlns="http://www.w3.org/2000/svg" xmlns:xlink="http://www.w3.org/1999/xlink" viewBox="0 0 62.12 26.15"><defs><style>.cls-1{clip-path:url(#clippath-1);}.cls-2{clip-path:url(#clippath);}.cls-3{fill:none;}.cls-4{fill:#231f20;}</style><clipPath id="clippath"><rect class="cls-3" width="62.12" height="26.15"/></clipPath><clipPath id="clippath-1"><rect class="cls-3" y="0" width="62.12" height="26.15"/></clipPath></defs><g id="Layer_1-2"><g id="Artwork_1"><g class="cls-2"><g class="cls-1"><path class="cls-4" d="M30.91,16.9c.63-.98,1.26-1.96,1.9-2.95,.2-.31,.01-.79-.36-.87-4.1-.89-9.01-.43-11.67,3.23-2.43,3.34-1.31,8.64,3,9.65,4.23,.99,7.72-2.14,9.82-5.46,1.17-1.84,2.39-3.89,1.67-6.14-.59-1.82-2.33-3.27-4.31-2.86-1.96,.4-3.49,2.32-3.76,4.25-.4,2.86,1.41,5.49,2.99,7.69,.23,.33,.82,.44,1.02,0,1.99-4.27,2.9-8.98,2.6-13.69-.15-2.29-.56-4.56-1.26-6.74-.47-1.46-1.13-3.41-3.09-2.94-1.65,.4-2.11,2.58-2.07,4.03,.05,1.91,.91,3.58,2.4,4.76,1.6,1.28,3.61,1.89,5.59,2.27,2.44,.47,4.93,.71,7.39,1.04,6.26,.83,12.51,1.67,18.77,2.5v-1.19c-15.87,.08-31.74,.16-47.6,.25l-13.38,.07v1.19c.9-.12,1.81-.24,2.71-.36,.75-.1,.76-1.29,0-1.19-.9,.12-1.81,.24-2.71,.36-.73,.1-.79,1.19,0,1.19,15.87-.08,31.74-.16,47.6-.25,4.46-.02,8.92-.05,13.38-.07,.79,0,.73-1.09,0-1.19-4.56-.61-9.12-1.22-13.69-1.83-4.28-.57-8.69-.89-12.9-1.83-3.41-.76-7.35-3.07-6.21-7.2,.18-.66,.57-1.61,1.43-1.43,.88,.19,1.11,1.7,1.33,2.43,.59,1.93,.96,3.93,1.1,5.94,.32,4.54-.5,9.13-2.43,13.26h1.02c-1.89-2.63-4.84-7.33-1-9.77,1.7-1.08,3.52,.02,3.99,1.87,.45,1.8-.71,3.5-1.62,4.95-1.71,2.71-4.38,5.38-7.85,5.02-3.81-.4-5.07-4.78-3.1-7.75,2.26-3.4,6.87-3.73,10.51-2.94-.12-.29-.24-.58-.36-.87-.63,.98-1.26,1.96-1.89,2.95-.41,.64,.61,1.24,1.02,.6"/></g></g></g></g></svg>