<?xml version="1.0" encoding="UTF-8"?><svg id="Layer_2" xmlns="http://www.w3.org/2000/svg" viewBox="0 0 58.05 4.77"><defs><style>.cls-1{font-family:ITCAvantGardePro-Bk, 'ITC Avant Garde Gothic Pro';font-size:3.53px;letter-spacing:.02em;}.cls-1,.cls-2{fill:#efd5ab;}</style></defs><g id="Layer_1-2"><text class="cls-1" transform="translate(6.53 3.96)"><tspan x="0" y="0">osamayousef752@gmail.com</tspan></text><path class="cls-2" d="M2.32,.39c1.07,0,1.94,.87,1.94,1.94s-.87,1.94-1.94,1.94S.39,3.39,.39,2.32,1.26,.39,2.32,.39Zm0-.39C1.04,0,0,1.04,0,2.32s1.04,2.32,2.32,2.32,2.32-1.04,2.32-2.32S3.6,0,2.32,0Zm0,2.43l-1.16-.88H3.48l-1.16,.88Zm0,.25l-1.16-.9v1.31H3.48V1.78l-1.16,.9Z"/></g></svg>