<?xml version="1.0" encoding="UTF-8"?><svg id="Layer_2" xmlns="http://www.w3.org/2000/svg" xmlns:xlink="http://www.w3.org/1999/xlink" viewBox="0 0 196 125.48"><defs><style>.cls-1{fill:url(#linear-gradient-2);}.cls-2{fill:url(#linear-gradient-17);}.cls-3{fill:url(#linear-gradient-15);}.cls-4{fill:url(#linear-gradient-18);}.cls-5{fill:url(#linear-gradient-14);}.cls-6{fill:url(#linear-gradient-20);}.cls-7{fill:url(#linear-gradient-6);}.cls-8{fill:url(#linear-gradient-11);}.cls-9{fill:url(#linear-gradient-10);}.cls-10{fill:url(#linear-gradient-16);}.cls-11{fill:url(#linear-gradient-21);}.cls-12{fill:url(#linear-gradient-5);}.cls-13{fill:url(#linear-gradient-7);}.cls-14{fill:url(#linear-gradient-9);}.cls-15{fill:url(#linear-gradient-3);}.cls-16{fill:url(#linear-gradient);}.cls-17{fill:url(#linear-gradient-19);}.cls-18{fill:url(#linear-gradient-4);}.cls-19{fill:url(#linear-gradient-8);}.cls-20{fill:url(#linear-gradient-12);}.cls-21{fill:url(#linear-gradient-13);}.cls-22{fill:#efd5ab;}</style><linearGradient id="linear-gradient" x1="196" y1="8.66" x2="174.69" y2="8.66" gradientUnits="userSpaceOnUse"><stop offset="0" stop-color="#fff" stop-opacity="0"/><stop offset=".22" stop-color="#acabab" stop-opacity="0"/><stop offset=".92" stop-color="#efd5ab"/><stop offset=".99" stop-color="#efd5ab"/></linearGradient><linearGradient id="linear-gradient-2" x1="170.6" y1="21.03" x2="153.28" y2="21.03" gradientUnits="userSpaceOnUse"><stop offset="0" stop-color="#fff" stop-opacity="0"/><stop offset=".22" stop-color="#acabab" stop-opacity="0"/><stop offset=".58" stop-color="#efd5ab"/><stop offset=".99" stop-color="#efd5ab"/></linearGradient><linearGradient id="linear-gradient-3" x1="149.66" y1="8.89" x2="133.33" y2="8.89" xlink:href="#linear-gradient-2"/><linearGradient id="linear-gradient-4" x1="150.16" y1="39.59" x2="132.84" y2="39.59" xlink:href="#linear-gradient-2"/><linearGradient id="linear-gradient-5" x1="170.11" y1="52.98" x2="153.78" y2="52.98" xlink:href="#linear-gradient-2"/><linearGradient id="linear-gradient-6" x1="174.69" y1="74.24" x2="132.62" y2="74.24" xlink:href="#linear-gradient-2"/><linearGradient id="linear-gradient-7" x1="174.69" y1="116.3" x2="132.62" y2="116.3" xlink:href="#linear-gradient-2"/><linearGradient id="linear-gradient-8" x1="195.47" y1="103.93" x2="178.15" y2="103.93" xlink:href="#linear-gradient"/><linearGradient id="linear-gradient-9" x1="194.98" y1="71.99" x2="178.64" y2="71.99" xlink:href="#linear-gradient"/><linearGradient id="linear-gradient-10" x1="196" y1="50.73" x2="174.69" y2="50.73" xlink:href="#linear-gradient"/><linearGradient id="linear-gradient-11" x1="193.99" y1="29.2" x2="177.65" y2="29.2" xlink:href="#linear-gradient"/><linearGradient id="linear-gradient-12" x1="152.54" y1="95.39" x2="136.21" y2="95.39" xlink:href="#linear-gradient-2"/><linearGradient id="linear-gradient-13" x1="172.33" y1="95.39" x2="156" y2="95.39" xlink:href="#linear-gradient-2"/><linearGradient id="linear-gradient-14" x1="0" y1="8.66" x2="39.13" y2="8.66" xlink:href="#linear-gradient-2"/><linearGradient id="linear-gradient-15" x1=".53" y1="103.93" x2="17.85" y2="103.93" xlink:href="#linear-gradient-2"/><linearGradient id="linear-gradient-16" x1="22.56" y1="117.32" x2="38.89" y2="117.32" xlink:href="#linear-gradient-2"/><linearGradient id="linear-gradient-17" x1="22.06" y1="84.13" x2="39.38" y2="84.13" xlink:href="#linear-gradient-2"/><linearGradient id="linear-gradient-18" x1="1.03" y1="71.99" x2="17.36" y2="71.99" xlink:href="#linear-gradient-2"/><linearGradient id="linear-gradient-19" x1="0" y1="50.73" x2="39.13" y2="50.73" xlink:href="#linear-gradient-2"/><linearGradient id="linear-gradient-20" x1=".04" y1="29.2" x2="16.37" y2="29.2" xlink:href="#linear-gradient-2"/><linearGradient id="linear-gradient-21" x1="19.83" y1="29.2" x2="36.17" y2="29.2" xlink:href="#linear-gradient-2"/></defs><g id="Layer_1-2"><g><rect class="cls-22" x="85.88" width="42.07" height="17.32"/><rect class="cls-22" x="64.47" y="0" width="17.32" height="42.07"/><circle class="cls-22" cx="52.69" cy="8.89" r="8.17"/><rect class="cls-22" x="44.03" y="18.56" width="17.32" height="42.07"/><circle class="cls-22" cx="73.13" cy="52.98" r="8.17"/><rect class="cls-22" x="43.81" y="65.58" width="42.07" height="17.32"/><rect class="cls-22" x="43.81" y="107.64" width="42.07" height="17.32"/><rect class="cls-22" x="89.34" y="82.9" width="17.32" height="42.07"/><circle class="cls-22" cx="119.53" cy="117.32" r="8.17"/><rect class="cls-22" x="110.87" y="63.1" width="17.32" height="42.07"/><circle class="cls-22" cx="98" cy="71.99" r="8.17"/><rect class="cls-22" x="85.88" y="42.07" width="42.07" height="17.32"/><circle class="cls-22" cx="97.01" cy="29.2" r="8.17"/><circle class="cls-22" cx="116.81" cy="29.2" r="8.17"/><circle class="cls-22" cx="55.56" cy="95.39" r="8.17"/><circle class="cls-22" cx="75.36" cy="95.39" r="8.17"/><g><rect class="cls-16" x="174.69" width="21.31" height="17.32"/><rect class="cls-1" x="153.28" y="0" width="17.32" height="42.07"/><circle class="cls-15" cx="141.5" cy="8.89" r="8.17"/><rect class="cls-18" x="132.84" y="18.56" width="17.32" height="42.07"/><circle class="cls-12" cx="161.94" cy="52.98" r="8.17"/><rect class="cls-7" x="132.62" y="65.58" width="42.07" height="17.32"/><rect class="cls-13" x="132.62" y="107.64" width="42.07" height="17.32"/><rect class="cls-19" x="178.15" y="82.9" width="17.32" height="42.07"/><circle class="cls-14" cx="186.81" cy="71.99" r="8.17"/><rect class="cls-9" x="174.69" y="42.07" width="21.31" height="17.32"/><circle class="cls-8" cx="185.82" cy="29.2" r="8.17"/><circle class="cls-20" cx="144.37" cy="95.39" r="8.17"/><circle class="cls-21" cx="164.17" cy="95.39" r="8.17"/></g><g><rect class="cls-5" width="39.13" height="17.32"/><rect class="cls-3" x=".53" y="82.9" width="17.32" height="42.07"/><circle class="cls-10" cx="30.72" cy="117.32" r="8.17"/><rect class="cls-2" x="22.06" y="63.1" width="17.32" height="42.07"/><circle class="cls-4" cx="9.19" cy="71.99" r="8.17"/><rect class="cls-17" y="42.07" width="39.13" height="17.32"/><circle class="cls-6" cx="8.2" cy="29.2" r="8.17"/><circle class="cls-11" cx="28" cy="29.2" r="8.17"/></g></g></g></svg>