<?xml version="1.0" encoding="UTF-8"?><svg xmlns="http://www.w3.org/2000/svg" viewBox="0 0 4.35 4.35"><defs><style>.cls-1{isolation:isolate;}.cls-2{fill:#e8e5c6;mix-blend-mode:hard-light;}</style></defs><g class="cls-1"><g id="Layer_2"><g id="Layer_1-2"><path class="cls-2" d="M2.17,.39c.58,0,.65,0,.88,.01,.59,.03,.86,.31,.89,.89,.01,.23,.01,.3,.01,.88s0,.65-.01,.88c-.03,.58-.3,.86-.89,.89-.23,.01-.3,.01-.88,.01s-.65,0-.88-.01c-.59-.03-.86-.31-.89-.89-.01-.23-.01-.3-.01-.88s0-.65,.01-.88c.03-.58,.3-.86,.89-.89,.23-.01,.3-.01,.88-.01Zm0-.39c-.59,0-.66,0-.9,.01C.49,.05,.05,.49,.01,1.28c-.01,.23-.01,.31-.01,.9s0,.66,.01,.9c.04,.79,.47,1.23,1.27,1.27,.23,.01,.31,.01,.9,.01s.66,0,.9-.01c.79-.04,1.23-.47,1.26-1.27,.01-.23,.01-.31,.01-.9s0-.66-.01-.9C4.3,.49,3.86,.05,3.07,.01,2.84,0,2.77,0,2.17,0Zm0,1.06c-.62,0-1.12,.5-1.12,1.12s.5,1.12,1.12,1.12,1.12-.5,1.12-1.12-.5-1.12-1.12-1.12Zm0,1.84c-.4,0-.72-.32-.72-.72s.32-.72,.72-.72,.72,.32,.72,.72-.32,.72-.72,.72ZM3.34,.75c-.14,0-.26,.12-.26,.26s.12,.26,.26,.26,.26-.12,.26-.26-.12-.26-.26-.26Z"/></g></g></g></svg>