<?xml version="1.0" encoding="UTF-8"?><svg id="Layer_2" xmlns="http://www.w3.org/2000/svg" viewBox="0 0 509.79 557.31"><defs><style>.cls-1{fill:#b24040;}</style></defs><g id="Layer_1-2"><g><g><path class="cls-1" d="M0,50.86c0-15.32,1.48-22.23,5.92-31.12C12.35,7.9,27.17,0,42.97,0s29.62,7.41,35.06,19.26c2.96,5.92,4.44,15.3,4.44,30.12V188.48c0,33.09-13.83,49.88-40.99,49.88-17.79,0-34.57-10.37-38.53-24.2-1.97-6.41-2.96-14.32-2.96-27.65V50.86ZM24.7,193.42c0,16.8,4.93,24.2,16.29,24.2s15.8-7.9,15.8-26.17V48.39c0-19.76-2.96-24.7-15.8-24.7s-16.29,5.92-16.29,29.64V193.42Z"/><path class="cls-1" d="M122.73,80.31c0,9.17,1.98,12.83,11.86,18.76l16.29,9.38c14.32,8.41,17.79,26.69,17.79,42.49v47.41c0,27.17-11.36,40-35.07,40s-33.58-12.83-33.58-39.5v-40h23.21v40.99c0,13.33,2.47,17.29,11.36,17.29,9.38,0,10.86-2.97,10.86-18.77v-40c0-13.33-1.48-28.16-10.86-33.6l-14.82-8.39c-16.79-10.86-20.74-17.29-20.26-34.57V46.73c0-16.29,1.48-23.7,5.44-29.62,6.42-9.39,17.29-14.33,30.62-14.33,23.21,0,35.06,12.85,35.06,38.03v39.01h-23.71V41.3c0-13.33-2.96-18.27-11.35-18.27-4.45,0-8.39,1.48-10.38,4.44-1.97,2.97-2.85,7.44-2.85,11.85l.38,41Z"/><path class="cls-1" d="M300.95,332.15c0,8.79,1.98,12.3,11.86,17.97l16.29,8.99c14.32,8.05,17.79,25.57,17.79,40.71v45.42c0,26.02-11.36,38.32-35.07,38.32s-33.58-12.3-33.58-37.84v-38.32h23.21v39.26c0,12.77,2.47,16.56,11.36,16.56,9.38,0,10.86-2.84,10.86-17.98v-38.32c0-12.77-1.48-26.98-10.86-32.19l-14.82-8.04c-16.79-10.41-20.74-16.56-20.26-33.12v-20.27c0-15.61,1.48-22.7,5.44-28.38,6.42-9,17.29-13.73,30.62-13.73,23.21,0,35.06,12.31,35.06,36.43v24.05h-23.71v-23.58c0-12.77-2.96-17.5-11.35-17.5-4.45,0-8.39,1.42-10.38,4.25-1.97,2.84-2.85,7.12-2.85,11.35l.38,25.95Z"/><path class="cls-1" d="M183.69,44.75c0-14.82,1.48-22.71,5.92-28.65,6.42-8.39,17.77-13.33,30.12-13.33,13.83,0,25.68,6.42,30.12,16.3,1.98,4.44,2.97,10.86,2.97,23.21v123.9c0,15.8,0,17.77,3.46,22.71h-21.23c-1.48-1.97-1.98-3.46-4.45-11.36-6.41,8.39-14.32,12.85-23.7,12.85-8.89,0-16.3-4.94-19.76-12.85-2.47-4.94-3.46-14.32-3.46-30.12v-16.23c0-27.65,9.38-40.99,28.15-40.99,6.91,0,13.33,2.46,17.28,6.91V41.3c0-13.33-2.46-17.29-10.86-17.29-7.9,0-12.83,6.91-11.85,15.8,.5,1.48,.5,2.96,.5,2.96v36.06h-23.21V44.75Zm23.21,109.08c0,10.86,2.47,14.82,9.38,14.82,7.41,0,12.83-4.94,12.83-12.35v-34.02c0-7.9-4.44-12.83-11.85-12.83-7.9,0-10.37,3.94-10.37,17.28v27.11Z"/><path class="cls-1" d="M302.66,5.73l.52,11.36c6.91-8.39,21.5-12.35,31.06-12.35,9.03,0,14.87,3.46,20.18,13.33,7.43-8.89,23.62-13.33,33.7-13.33,12.22,0,21.78,6.91,23.9,17.77,.54,4.45,1.06,8.89,1.06,16.79v217.05h-23.89V44.25c0-17.28-1.6-20.24-11.16-20.24-5.83,0-17.78,2.97-19.9,7.41v224.94h-25.49V38.82c0-11.36-2.66-15.32-9.55-15.32-5.85,0-16.72,2.97-20.44,9.88v222.97h-24.96V5.73h24.96Z"/><path class="cls-1" d="M437.2,43.26c0-14.82,1.48-22.71,5.92-28.65,6.42-8.39,17.77-13.33,30.12-13.33,13.83,0,25.68,6.42,30.12,16.3,1.98,4.44,2.97,10.86,2.97,23.21V212.18c0,15.8,0,17.77,3.46,22.71h-21.23c-1.48-1.97-1.98-3.46-4.45-11.36-6.41,8.39-14.32,12.85-23.7,12.85-8.89,0-16.3-4.94-19.76-12.85-2.47-4.94-3.46-14.32-3.46-30.12v-63.72c0-27.65,9.38-40.99,28.15-40.99,6.91,0,13.33,2.46,17.28,6.91V39.81c0-13.33-2.46-17.29-10.86-17.29-7.9,0-12.83,6.91-11.85,15.8,.5,1.48,.5,2.96,.5,2.96v36.06h-23.21V43.26Zm23.21,156.57c0,10.86,2.47,14.82,9.38,14.82,7.41,0,12.83-4.94,12.83-12.35V120.8c0-7.9-4.44-12.83-11.85-12.83-7.9,0-10.37,3.94-10.37,17.28v74.6Z"/><path class="cls-1" d="M55.3,390.72v90.85H31.11v-90.85L0,262.8H25.18l18.77,98.07,18.76-98.07h23.71l-31.12,127.92Z"/><path class="cls-1" d="M167.9,434.66c0,35.06-10.88,48.88-38.53,48.88-25.18,0-36.05-12.83-36.05-42.96v-139.27c0-30.12,10.37-41.48,37.53-41.48s37.04,11.86,37.04,39.51v135.32Zm-50.88,8.88c0,13.33,3.95,18.77,13.33,18.77,9.88,0,12.85-4.94,12.85-19.26v-141.24c0-16.3-2.47-20.74-12.85-20.74s-13.33,4.94-13.33,19.76v142.71Z"/><path class="cls-1" d="M233.57,481.58v-9.88c-7.9,7.91-13.83,10.38-22.23,10.38-15.8,0-23.7-11.36-23.7-34.08V203.44h23.21v236.65c0,16.79,1.97,22.23,9.38,22.23,5.44,0,10.38-3.46,12.85-8.89V203.44h23.2V481.58h-22.71Z"/><path class="cls-1" d="M386.36,441.08c0,16.79,2.47,21.24,12.34,21.24,8.89,0,10.86-3.46,10.86-20.24v-45.44h23.71v48.39c0,25.68-11.36,38.52-35.06,38.52s-36.55-12.83-36.55-39.5v-131.88c0-27.65,11.85-40.99,37.53-40.99,13.83,0,22.71,3.95,29.14,11.85,1.48,1.98,4.94,16.79,4.94,19.76v73.1h-46.91v65.18Zm22.21-87.9l.5-42c0-13.82-1.98-16.79-10.86-16.79s-12.35,5.92-12.35,20.74l.5,38.04h22.21Z"/><path class="cls-1" d="M509.79,270.36h-19.49c-6.42,0-7.91,2.47-7.91,11.86v72.32h16.3v21.24h-16.3v107.76h-25.18v-108.26h-14.82v-21.24h14.82l.5-65.41c0-27.65-1.31-40,27.65-40h24.43v21.73Z"/></g><g><path class="cls-1" d="M36.34,530.64v-5.42h25.63c-.38,13.47-10.57,20.92-21.36,20.92s-20.32-9.53-20.32-20.48c0-13.14,10.08-21.58,20.32-21.58,7.78,0,14.46,3.67,18.56,10.95h-6.9c-3.45-3.94-6.9-5.53-11.39-5.53-7.89,0-14.68,7.45-14.68,15.44,0,8.54,6.74,15.77,14.9,15.77,6.41,0,11.56-3.56,14.13-10.08h-18.89Z"/><path class="cls-1" d="M68.21,545.37v-30.34h5.31v2.74h.11c1.37-2.03,3.72-3.34,7.72-3.56v5.86c-4.93,.16-7.45,3.18-7.45,8.27v17.03h-5.7Z"/><path class="cls-1" d="M111.04,545.37v-4.71h-.11c-2.14,3.61-5.97,5.48-10.3,5.48-8.87,0-16.1-6.68-16.1-15.44,0-9.69,6.96-16.48,15.88-16.48,4.44,0,8.16,1.64,10.51,5.09h.11v-4.27h5.7v30.34h-5.7Zm.11-15.11c0-5.91-4.27-10.84-10.57-10.84-5.7,0-10.35,4.87-10.35,10.84s4.65,10.68,10.35,10.68,10.57-4.93,10.57-10.68Z"/><path class="cls-1" d="M125.99,555.5v-40.47h5.2v4.66h.11c2.57-3.67,6.46-5.48,10.79-5.48,9.04,0,15.72,7.01,15.72,16.37,0,8.54-6.63,15.55-15.33,15.55-4.6,0-8.71-1.86-10.68-5.15h-.11v14.51h-5.7Zm26.12-25.25c0-5.53-4.38-10.84-10.46-10.84-5.7,0-10.08,5.09-10.08,10.73s4.38,10.79,10.3,10.79,10.24-4.87,10.24-10.68Z"/><path class="cls-1" d="M185.57,545.37v-16.48c0-6.52-2.52-9.47-7.56-9.47s-8,3.61-8,9.53v16.43h-5.7v-40.53h5.7v13.42h.11c1.81-2.68,4.71-4.05,8.49-4.05,7.23,0,12.65,4.6,12.65,12.92v18.24h-5.7Z"/><path class="cls-1" d="M199.26,511.52v-6.68h5.7v6.68h-5.7Zm0,33.84v-30.34h5.7v30.34h-5.7Z"/><path class="cls-1" d="M242.03,535.35c-2.41,6.85-8.21,10.79-14.95,10.79-8.71,0-15.55-7.01-15.55-15.66,0-9.15,6.63-16.27,15.5-16.27,6.9,0,13.2,4.33,15,10.9h-6.3c-1.7-3.56-4.44-5.7-8.54-5.7-5.97,0-9.97,4.55-9.97,10.73s4.11,10.79,9.86,10.79c3.89,0,7.01-2.08,8.6-5.59h6.35Z"/><path class="cls-1" d="M290.27,545.37v-4.33h-.11c-2.36,3.29-6.3,5.09-10.73,5.09-8.82,0-15.77-6.68-15.77-15.61s6.57-16.32,15.61-16.32c4.11,0,8,1.48,10.46,4.55h.11v-13.91h5.7v40.53h-5.26Zm-10.57-25.96c-5.8,0-10.35,4.87-10.35,10.84s4.66,10.68,10.35,10.68,10.57-4.71,10.57-10.46c0-6.19-4.16-11.06-10.57-11.06Z"/><path class="cls-1" d="M307.85,532.66c1.31,5.04,5.31,8.27,9.97,8.27,3.56,0,6.9-1.86,8.65-5.09h5.7c-2.36,6.24-8.05,10.3-14.57,10.3-8.54,0-15.44-7.56-15.44-15.66,0-9.58,7.23-16.27,15.28-16.27,8.93,0,15.72,6.9,15.72,15.61,0,.93,0,1.81-.16,2.85h-25.14Zm19.61-4.38c-.44-5.15-4.98-8.87-9.86-8.87s-9.31,3.67-9.75,8.87h19.61Z"/><path class="cls-1" d="M351.61,523.08c-.27-2.19-1.53-3.67-3.89-3.67-2.19,0-3.56,1.48-3.56,3.23,0,2.57,2.63,3.34,5.64,4.27,4.27,1.31,8.21,3.89,8.21,9.53s-4.27,9.69-10.19,9.69c-5.48,0-10.73-3.72-10.73-10.73h5.7c.27,3.67,2.14,5.53,5.15,5.53,2.63,0,4.38-1.7,4.38-4.16,0-2.08-1.59-3.45-5.15-4.6-7.45-2.35-8.71-5.59-8.71-9.04,0-5.37,4.54-8.93,9.53-8.93s9.15,3.5,9.31,8.87h-5.7Z"/><path class="cls-1" d="M363.71,511.52v-6.68h5.7v6.68h-5.7Zm0,33.84v-30.34h5.7v30.34h-5.7Z"/><path class="cls-1" d="M402.65,541.37c-2.35,3.18-6.13,4.76-10.46,4.76-8.71,0-16.21-7.5-16.21-15.72,0-9.15,7.12-16.21,16.26-16.21,3.94,0,8.11,1.64,10.51,4.33v-3.5h5.7v26.34c0,9.86-6.08,15.94-16.37,15.94-6.96,0-12.43-3.67-15-9.58h6.35c2.14,3.01,4.98,4.38,8.71,4.38,6.96,0,10.62-3.78,10.62-10.73h-.11Zm.11-11.17c0-7.12-5.42-10.79-10.68-10.79-5.64,0-10.41,4.87-10.41,10.79s4.82,10.73,10.46,10.73c6.63,0,10.62-5.8,10.62-10.73Z"/><path class="cls-1" d="M437.75,545.37v-16.54c0-6.41-2.52-9.42-7.56-9.42s-8,3.67-8,9.36v16.59h-5.7v-30.34h5.31v3.23h.11c2.25-2.9,5.37-4.05,8.87-4.05,7.28,0,12.65,4.6,12.65,12.98v18.18h-5.7Z"/><path class="cls-1" d="M455.71,532.66c1.31,5.04,5.31,8.27,9.97,8.27,3.56,0,6.9-1.86,8.65-5.09h5.7c-2.35,6.24-8.05,10.3-14.57,10.3-8.54,0-15.44-7.56-15.44-15.66,0-9.58,7.23-16.27,15.28-16.27,8.93,0,15.72,6.9,15.72,15.61,0,.93,0,1.81-.16,2.85h-25.14Zm19.61-4.38c-.44-5.15-4.98-8.87-9.86-8.87s-9.31,3.67-9.75,8.87h19.61Z"/><path class="cls-1" d="M487.53,545.37v-30.34h5.31v2.74h.11c1.37-2.03,3.72-3.34,7.72-3.56v5.86c-4.93,.16-7.45,3.18-7.45,8.27v17.03h-5.7Z"/></g></g></g></svg>