<?xml version="1.0" encoding="utf-8"?>
<!-- Generator: Adobe Illustrator 26.5.2, SVG Export Plug-In . SVG Version: 6.00 Build 0)  -->
<svg version="1.1" id="Layer_1" xmlns="http://www.w3.org/2000/svg" xmlns:xlink="http://www.w3.org/1999/xlink" x="0px" y="0px"
	 viewBox="0 0 43.2 41" style="enable-background:new 0 0 43.2 41;" xml:space="preserve">
<style type="text/css">
	.st0{fill:#B34141;}
</style>
<g>
	<g>
		<g>
			<g>
				<path class="st0" d="M0,4.3C0,3,0.1,2.4,0.5,1.7C1,0.7,2.3,0,3.6,0c1.4,0,2.5,0.6,3,1.6C6.9,2.1,7,2.9,7,4.2V16
					c0,2.8-1.2,4.2-3.5,4.2c-1.5,0-2.9-0.9-3.3-2.1C0.1,17.6,0,16.9,0,15.8V4.3z M2.1,16.4c0,1.4,0.4,2.1,1.4,2.1
					c0.9,0,1.3-0.7,1.3-2.2V4.1C4.8,2.4,4.6,2,3.5,2C2.4,2,2.1,2.5,2.1,4.5V16.4z"/>
			</g>
		</g>
		<g>
			<g>
				<path class="st0" d="M10.4,6.8c0,0.8,0.2,1.1,1,1.6l1.4,0.8c1.2,0.7,1.5,2.3,1.5,3.6v4c0,2.3-1,3.4-3,3.4
					c-1.9,0-2.8-1.1-2.8-3.3v-3.4h2v3.5c0,1.1,0.2,1.5,1,1.5c0.8,0,0.9-0.3,0.9-1.6v-3.4c0-1.1-0.1-2.4-0.9-2.8l-1.3-0.7
					C8.7,8.9,8.4,8.4,8.4,6.9V4c0-1.4,0.1-2,0.5-2.5c0.5-0.8,1.5-1.2,2.6-1.2c2,0,3,1.1,3,3.2v3.3h-2V3.5c0-1.1-0.3-1.5-1-1.5
					c-0.4,0-0.7,0.1-0.9,0.4c-0.2,0.3-0.2,0.6-0.2,1L10.4,6.8z"/>
			</g>
		</g>
		<g>
			<g>
				<path class="st0" d="M25.5,28.2c0,0.7,0.2,1,1,1.5l1.4,0.8c1.2,0.7,1.5,2.2,1.5,3.5v3.8c0,2.2-1,3.2-3,3.2c-1.9,0-2.8-1-2.8-3.2
					v-3.2h2v3.3c0,1.1,0.2,1.4,1,1.4c0.8,0,0.9-0.2,0.9-1.5v-3.2c0-1.1-0.1-2.3-0.9-2.7l-1.3-0.7c-1.4-0.9-1.8-1.4-1.7-2.8v-1.7
					c0-1.3,0.1-1.9,0.5-2.4c0.5-0.8,1.5-1.2,2.6-1.2c2,0,3,1,3,3.1v2h-2v-2c0-1.1-0.3-1.5-1-1.5c-0.4,0-0.7,0.1-0.9,0.4
					c-0.2,0.2-0.2,0.6-0.2,1L25.5,28.2z"/>
			</g>
		</g>
		<g>
			<g>
				<path class="st0" d="M15.6,3.8c0-1.3,0.1-1.9,0.5-2.4c0.5-0.7,1.5-1.1,2.6-1.1c1.2,0,2.2,0.5,2.6,1.4c0.2,0.4,0.3,0.9,0.3,2
					v10.5c0,1.3,0,1.5,0.3,1.9h-1.8c-0.1-0.2-0.2-0.3-0.4-1c-0.5,0.7-1.2,1.1-2,1.1c-0.8,0-1.4-0.4-1.7-1.1
					c-0.2-0.4-0.3-1.2-0.3-2.6v-1.4c0-2.3,0.8-3.5,2.4-3.5c0.6,0,1.1,0.2,1.5,0.6V3.5c0-1.1-0.2-1.5-0.9-1.5c-0.7,0-1.1,0.6-1,1.3
					c0,0.1,0,0.3,0,0.3v3.1h-2V3.8z M17.5,13c0,0.9,0.2,1.3,0.8,1.3c0.6,0,1.1-0.4,1.1-1v-2.9c0-0.7-0.4-1.1-1-1.1
					c-0.7,0-0.9,0.3-0.9,1.5V13z"/>
			</g>
		</g>
		<g>
			<g>
				<path class="st0" d="M25.7,0.5l0,1c0.6-0.7,1.8-1,2.6-1c0.8,0,1.3,0.3,1.7,1.1c0.6-0.8,2-1.1,2.9-1.1c1,0,1.8,0.6,2,1.5
					C35,2.3,35,2.7,35,3.3v18.4h-2v-18C33,2.3,32.9,2,32,2c-0.5,0-1.5,0.3-1.7,0.6v19.1h-2.2V3.3c0-1-0.2-1.3-0.8-1.3
					c-0.5,0-1.4,0.3-1.7,0.8v18.9h-2.1V0.5H25.7z"/>
			</g>
		</g>
		<g>
			<g>
				<path class="st0" d="M37.1,3.7c0-1.3,0.1-1.9,0.5-2.4c0.5-0.7,1.5-1.1,2.6-1.1c1.2,0,2.2,0.5,2.6,1.4c0.2,0.4,0.3,0.9,0.3,2V18
					c0,1.3,0,1.5,0.3,1.9h-1.8c-0.1-0.2-0.2-0.3-0.4-1c-0.5,0.7-1.2,1.1-2,1.1c-0.8,0-1.4-0.4-1.7-1.1c-0.2-0.4-0.3-1.2-0.3-2.6V11
					c0-2.3,0.8-3.5,2.4-3.5c0.6,0,1.1,0.2,1.5,0.6V3.4c0-1.1-0.2-1.5-0.9-1.5c-0.7,0-1.1,0.6-1,1.3c0,0.1,0,0.3,0,0.3v3.1h-2V3.7z
					 M39,16.9c0,0.9,0.2,1.3,0.8,1.3c0.6,0,1.1-0.4,1.1-1v-6.9c0-0.7-0.4-1.1-1-1.1c-0.7,0-0.9,0.3-0.9,1.5V16.9z"/>
			</g>
		</g>
		<g>
			<g>
				<path class="st0" d="M4.7,33.1v7.7H2.6v-7.7L0,22.3h2.1l1.6,8.3l1.6-8.3h2L4.7,33.1z"/>
			</g>
		</g>
		<g>
			<g>
				<path class="st0" d="M14.2,36.8c0,3-0.9,4.1-3.3,4.1c-2.1,0-3.1-1.1-3.1-3.6V25.5c0-2.6,0.9-3.5,3.2-3.5c2.2,0,3.1,1,3.1,3.3
					V36.8z M9.9,37.6c0,1.1,0.3,1.6,1.1,1.6c0.8,0,1.1-0.4,1.1-1.6v-12c0-1.4-0.2-1.8-1.1-1.8c-0.8,0-1.1,0.4-1.1,1.7V37.6z"/>
			</g>
		</g>
		<g>
			<g>
				<path class="st0" d="M19.8,40.8V40c-0.7,0.7-1.2,0.9-1.9,0.9c-1.3,0-2-1-2-2.9V17.2h2v20.1c0,1.4,0.2,1.9,0.8,1.9
					c0.5,0,0.9-0.3,1.1-0.8V17.2h2v23.6H19.8z"/>
			</g>
		</g>
		<g>
			<g>
				<path class="st0" d="M32.7,37.4c0,1.4,0.2,1.8,1,1.8c0.8,0,0.9-0.3,0.9-1.7v-3.9h2v4.1c0,2.2-1,3.3-3,3.3
					c-2.1,0-3.1-1.1-3.1-3.3V26.5c0-2.3,1-3.5,3.2-3.5c1.2,0,1.9,0.3,2.5,1c0.4,0.6,0.4,1.4,0.4,1.7v6.2h-4V37.4z M34.6,29.9l0-3.6
					c0-1.2-0.2-1.4-0.9-1.4c-0.8,0-1,0.5-1,1.8l0,3.2H34.6z"/>
			</g>
		</g>
		<g>
			<g>
				<path class="st0" d="M43.2,22.9h-1.7c-0.5,0-0.7,0.2-0.7,1v6.1h1.4v1.8h-1.4V41h-2.1v-9.2h-1.3V30h1.3l0-5.5
					c0-2.3-0.1-3.4,2.3-3.4h2.1V22.9z"/>
			</g>
		</g>
	</g>
</g>
</svg>
