<?xml version="1.0" encoding="UTF-8"?><svg id="Layer_2" xmlns="http://www.w3.org/2000/svg" viewBox="0 0 46.54 52.53"><defs><style>.cls-1{letter-spacing:.04em;}.cls-2{font-family:ITCAvantGardePro-Md, 'ITC Avant Garde Gothic Pro';font-size:5px;}.cls-2,.cls-3{fill:#efd5ab;}.cls-4{letter-spacing:.01em;}.cls-5{letter-spacing:.02em;}.cls-6{letter-spacing:0em;}</style></defs><g id="Layer_1-2"><g><g><path class="cls-3" d="M0,4.64C0,3.25,.14,2.61,.54,1.8,1.13,.72,2.48,0,3.92,0s2.7,.68,3.2,1.76c.27,.54,.41,1.4,.41,2.75v12.7c0,3.02-1.26,4.55-3.74,4.55-1.62,0-3.16-.95-3.52-2.21-.18-.59-.27-1.31-.27-2.52V4.64Zm2.25,13.01c0,1.53,.45,2.21,1.49,2.21s1.44-.72,1.44-2.39V4.42c0-1.8-.27-2.25-1.44-2.25s-1.49,.54-1.49,2.71v12.79Z"/><path class="cls-3" d="M11.2,7.33c0,.84,.18,1.17,1.08,1.71l1.49,.86c1.31,.77,1.62,2.44,1.62,3.88v4.33c0,2.48-1.04,3.65-3.2,3.65s-3.07-1.17-3.07-3.61v-3.65h2.12v3.74c0,1.22,.23,1.58,1.04,1.58,.86,0,.99-.27,.99-1.71v-3.65c0-1.22-.14-2.57-.99-3.07l-1.35-.77c-1.53-.99-1.89-1.58-1.85-3.16v-3.2c0-1.49,.14-2.16,.5-2.7,.59-.86,1.58-1.31,2.8-1.31,2.12,0,3.2,1.17,3.2,3.47v3.56h-2.16V3.77c0-1.22-.27-1.67-1.04-1.67-.41,0-.77,.14-.95,.41-.18,.27-.26,.68-.26,1.08l.03,3.74Z"/><path class="cls-3" d="M27.47,30.32c0,.8,.18,1.12,1.08,1.64l1.49,.82c1.31,.74,1.62,2.33,1.62,3.72v4.15c0,2.38-1.04,3.5-3.2,3.5s-3.07-1.12-3.07-3.45v-3.5h2.12v3.58c0,1.17,.23,1.51,1.04,1.51,.86,0,.99-.26,.99-1.64v-3.5c0-1.17-.14-2.46-.99-2.94l-1.35-.73c-1.53-.95-1.89-1.51-1.85-3.02v-1.85c0-1.42,.14-2.07,.5-2.59,.59-.82,1.58-1.25,2.8-1.25,2.12,0,3.2,1.12,3.2,3.33v2.2h-2.16v-2.15c0-1.17-.27-1.6-1.04-1.6-.41,0-.77,.13-.95,.39-.18,.26-.26,.65-.26,1.04l.03,2.37Z"/><path class="cls-3" d="M16.77,4.09c0-1.35,.14-2.07,.54-2.62,.59-.77,1.62-1.22,2.75-1.22,1.26,0,2.34,.59,2.75,1.49,.18,.41,.27,.99,.27,2.12V15.17c0,1.44,0,1.62,.32,2.07h-1.94c-.14-.18-.18-.32-.41-1.04-.59,.77-1.31,1.17-2.16,1.17-.81,0-1.49-.45-1.8-1.17-.23-.45-.32-1.31-.32-2.75v-1.48c0-2.52,.86-3.74,2.57-3.74,.63,0,1.22,.22,1.58,.63V3.77c0-1.22-.22-1.58-.99-1.58-.72,0-1.17,.63-1.08,1.44,.05,.14,.05,.27,.05,.27v3.29h-2.12v-3.11Zm2.12,9.96c0,.99,.23,1.35,.86,1.35,.68,0,1.17-.45,1.17-1.13v-3.11c0-.72-.41-1.17-1.08-1.17-.72,0-.95,.36-.95,1.58v2.47Z"/><path class="cls-3" d="M27.63,.52l.05,1.04c.63-.77,1.96-1.13,2.84-1.13,.82,0,1.36,.32,1.84,1.22,.68-.81,2.16-1.22,3.08-1.22,1.12,0,1.99,.63,2.18,1.62,.05,.41,.1,.81,.1,1.53V23.4h-2.18V4.04c0-1.58-.15-1.85-1.02-1.85-.53,0-1.62,.27-1.82,.68V23.4h-2.33V3.54c0-1.04-.24-1.4-.87-1.4-.53,0-1.53,.27-1.87,.9V23.4h-2.28V.52h2.28Z"/><path class="cls-3" d="M39.91,3.95c0-1.35,.14-2.07,.54-2.62,.59-.77,1.62-1.22,2.75-1.22,1.26,0,2.34,.59,2.75,1.49,.18,.41,.27,.99,.27,2.12v15.65c0,1.44,0,1.62,.32,2.07h-1.94c-.14-.18-.18-.32-.41-1.04-.59,.77-1.31,1.17-2.16,1.17-.81,0-1.49-.45-1.8-1.17-.23-.45-.32-1.31-.32-2.75v-5.82c0-2.52,.86-3.74,2.57-3.74,.63,0,1.22,.22,1.58,.63V3.63c0-1.22-.22-1.58-.99-1.58-.72,0-1.17,.63-1.08,1.44,.05,.14,.05,.27,.05,.27v3.29h-2.12V3.95Zm2.12,14.29c0,.99,.23,1.35,.86,1.35,.68,0,1.17-.45,1.17-1.13v-7.44c0-.72-.41-1.17-1.08-1.17-.72,0-.95,.36-.95,1.58v6.81Z"/><path class="cls-3" d="M5.05,35.67v8.29H2.84v-8.29L0,23.99H2.3l1.71,8.95,1.71-8.95h2.16l-2.84,11.68Z"/><path class="cls-3" d="M15.33,39.68c0,3.2-.99,4.46-3.52,4.46-2.3,0-3.29-1.17-3.29-3.92v-12.71c0-2.75,.95-3.79,3.43-3.79s3.38,1.08,3.38,3.61v12.35Zm-4.64,.81c0,1.22,.36,1.71,1.22,1.71,.9,0,1.17-.45,1.17-1.76v-12.89c0-1.49-.23-1.89-1.17-1.89s-1.22,.45-1.22,1.8v13.03Z"/><path class="cls-3" d="M21.32,43.96v-.9c-.72,.72-1.26,.95-2.03,.95-1.44,0-2.16-1.04-2.16-3.11V18.57h2.12v21.6c0,1.53,.18,2.03,.86,2.03,.5,0,.95-.32,1.17-.81V18.57h2.12v25.39h-2.07Z"/><path class="cls-3" d="M35.27,40.27c0,1.53,.23,1.94,1.13,1.94,.81,0,.99-.32,.99-1.85v-4.15h2.16v4.42c0,2.34-1.04,3.52-3.2,3.52s-3.34-1.17-3.34-3.61v-12.04c0-2.52,1.08-3.74,3.43-3.74,1.26,0,2.07,.36,2.66,1.08,.14,.18,.45,1.53,.45,1.8v6.67h-4.28v5.95Zm2.03-8.02l.05-3.83c0-1.26-.18-1.53-.99-1.53s-1.13,.54-1.13,1.89l.05,3.47h2.03Z"/><path class="cls-3" d="M46.54,24.68h-1.78c-.59,0-.72,.23-.72,1.08v6.6h1.49v1.94h-1.49v9.84h-2.3v-9.88h-1.35v-1.94h1.35l.05-5.97c0-2.52-.12-3.65,2.52-3.65h2.23v1.98Z"/></g><text class="cls-2" transform="translate(1.66 51.25)"><tspan class="cls-5" x="0" y="0">G</tspan><tspan class="cls-6" x="4.23" y="0">r</tspan><tspan class="cls-1" x="5.86" y="0">a</tspan><tspan class="cls-4" x="9.5" y="0">phic designer</tspan></text></g></g></svg>