<?xml version="1.0" encoding="UTF-8"?><svg id="Layer_2" xmlns="http://www.w3.org/2000/svg" xmlns:xlink="http://www.w3.org/1999/xlink" viewBox="0 0 196 125.48"><defs><style>.cls-1{fill:url(#linear-gradient-2);}.cls-2{fill:url(#linear-gradient-6);}.cls-3{fill:url(#linear-gradient-11);}.cls-4{fill:url(#linear-gradient-10);}.cls-5{fill:url(#linear-gradient-5);}.cls-6{fill:url(#linear-gradient-7);}.cls-7{fill:url(#linear-gradient-9);}.cls-8{fill:url(#linear-gradient-3);}.cls-9{fill:url(#linear-gradient);}.cls-10{fill:url(#linear-gradient-4);}.cls-11{fill:url(#linear-gradient-8);}.cls-12{fill:url(#linear-gradient-12);}.cls-13{fill:url(#linear-gradient-13);}.cls-14{fill:#efd5ab;}</style><linearGradient id="linear-gradient" x1="196" y1="8.66" x2="174.69" y2="8.66" gradientUnits="userSpaceOnUse"><stop offset="0" stop-color="#fff" stop-opacity="0"/><stop offset=".02" stop-color="#fefcfa" stop-opacity=".06"/><stop offset=".14" stop-color="#f9f0e2" stop-opacity=".34"/><stop offset=".25" stop-color="#f5e6ce" stop-opacity=".57"/><stop offset=".36" stop-color="#f2dfbf" stop-opacity=".76"/><stop offset=".45" stop-color="#f0d9b4" stop-opacity=".89"/><stop offset=".53" stop-color="#efd6ad" stop-opacity=".97"/><stop offset=".58" stop-color="#efd5ab"/><stop offset=".99" stop-color="#efd5ab"/></linearGradient><linearGradient id="linear-gradient-2" x1="195.47" y1="103.93" x2="178.15" y2="103.93" xlink:href="#linear-gradient"/><linearGradient id="linear-gradient-3" x1="194.98" y1="71.99" x2="178.64" y2="71.99" xlink:href="#linear-gradient"/><linearGradient id="linear-gradient-4" x1="196" y1="50.73" x2="174.69" y2="50.73" xlink:href="#linear-gradient"/><linearGradient id="linear-gradient-5" x1="193.99" y1="29.2" x2="177.65" y2="29.2" xlink:href="#linear-gradient"/><linearGradient id="linear-gradient-6" x1="0" y1="8.66" x2="39.13" y2="8.66" gradientUnits="userSpaceOnUse"><stop offset="0" stop-color="#fff" stop-opacity="0"/><stop offset=".01" stop-color="#fefcfa" stop-opacity=".06"/><stop offset=".07" stop-color="#f9f0e2" stop-opacity=".34"/><stop offset=".13" stop-color="#f5e6ce" stop-opacity=".57"/><stop offset=".18" stop-color="#f2dfbf" stop-opacity=".76"/><stop offset=".22" stop-color="#f0d9b4" stop-opacity=".89"/><stop offset=".26" stop-color="#efd6ad" stop-opacity=".97"/><stop offset=".29" stop-color="#efd5ab"/><stop offset=".99" stop-color="#efd5ab"/></linearGradient><linearGradient id="linear-gradient-7" x1=".53" y1="103.93" x2="17.85" y2="103.93" xlink:href="#linear-gradient"/><linearGradient id="linear-gradient-8" x1="22.56" y1="117.32" x2="38.89" y2="117.32" gradientUnits="userSpaceOnUse"><stop offset=".58" stop-color="#efd5ab"/><stop offset=".99" stop-color="#efd5ab"/></linearGradient><linearGradient id="linear-gradient-9" x1="22.06" y1="84.13" x2="39.38" y2="84.13" xlink:href="#linear-gradient-8"/><linearGradient id="linear-gradient-10" x1="1.03" y1="71.99" x2="17.36" y2="71.99" xlink:href="#linear-gradient"/><linearGradient id="linear-gradient-11" y1="50.73" y2="50.73" xlink:href="#linear-gradient-6"/><linearGradient id="linear-gradient-12" x1=".04" y1="29.2" x2="16.37" y2="29.2" xlink:href="#linear-gradient"/><linearGradient id="linear-gradient-13" x1="19.83" y1="29.2" x2="36.17" y2="29.2" xlink:href="#linear-gradient-8"/></defs><g id="Layer_1-2"><g><rect class="cls-14" x="85.88" width="42.07" height="17.32"/><rect class="cls-14" x="64.47" y="0" width="17.32" height="42.07"/><circle class="cls-14" cx="52.69" cy="8.89" r="8.17"/><rect class="cls-14" x="44.03" y="18.56" width="17.32" height="42.07"/><circle class="cls-14" cx="73.13" cy="52.98" r="8.17"/><rect class="cls-14" x="43.81" y="65.58" width="42.07" height="17.32"/><rect class="cls-14" x="43.81" y="107.64" width="42.07" height="17.32"/><rect class="cls-14" x="89.34" y="82.9" width="17.32" height="42.07"/><circle class="cls-14" cx="119.53" cy="117.32" r="8.17"/><rect class="cls-14" x="110.87" y="63.1" width="17.32" height="42.07"/><circle class="cls-14" cx="98" cy="71.99" r="8.17"/><rect class="cls-14" x="85.88" y="42.07" width="42.07" height="17.32"/><circle class="cls-14" cx="97.01" cy="29.2" r="8.17"/><circle class="cls-14" cx="116.81" cy="29.2" r="8.17"/><circle class="cls-14" cx="55.56" cy="95.39" r="8.17"/><circle class="cls-14" cx="75.36" cy="95.39" r="8.17"/><g><rect class="cls-9" x="174.69" width="21.31" height="17.32"/><rect class="cls-14" x="153.28" y="0" width="17.32" height="42.07"/><circle class="cls-14" cx="141.5" cy="8.89" r="8.17"/><rect class="cls-14" x="132.84" y="18.56" width="17.32" height="42.07"/><circle class="cls-14" cx="161.94" cy="52.98" r="8.17"/><rect class="cls-14" x="132.62" y="65.58" width="42.07" height="17.32"/><rect class="cls-14" x="132.62" y="107.64" width="42.07" height="17.32"/><rect class="cls-1" x="178.15" y="82.9" width="17.32" height="42.07"/><circle class="cls-8" cx="186.81" cy="71.99" r="8.17"/><rect class="cls-10" x="174.69" y="42.07" width="21.31" height="17.32"/><circle class="cls-5" cx="185.82" cy="29.2" r="8.17"/><circle class="cls-14" cx="144.37" cy="95.39" r="8.17"/><circle class="cls-14" cx="164.17" cy="95.39" r="8.17"/></g><g><rect class="cls-2" width="39.13" height="17.32"/><rect class="cls-6" x=".53" y="82.9" width="17.32" height="42.07"/><circle class="cls-11" cx="30.72" cy="117.32" r="8.17"/><rect class="cls-7" x="22.06" y="63.1" width="17.32" height="42.07"/><circle class="cls-4" cx="9.19" cy="71.99" r="8.17"/><rect class="cls-3" y="42.07" width="39.13" height="17.32"/><circle class="cls-12" cx="8.2" cy="29.2" r="8.17"/><circle class="cls-13" cx="28" cy="29.2" r="8.17"/></g></g></g></svg>